<?xml version="1.0" encoding="utf-8"?>
<!-- Generator: Adobe Illustrator 16.0.0, SVG Export Plug-In . SVG Version: 6.00 Build 0)  -->
<!DOCTYPE svg PUBLIC "-//W3C//DTD SVG 1.1//EN" "http://www.w3.org/Graphics/SVG/1.1/DTD/svg11.dtd">
<svg version="1.1" id="Layer_1" xmlns="http://www.w3.org/2000/svg" xmlns:xlink="http://www.w3.org/1999/xlink" x="0px" y="0px"
	 width="50px" height="50px" viewBox="0 0 50 50" enable-background="new 0 0 50 50" xml:space="preserve">
<circle fill="#EF7C04" cx="17.168" cy="24.961" r="5.502"/>
<circle fill="#9AD6D2" cx="3.057" cy="25.449" r="2.406"/>
<circle fill="#56BCB8" cx="19.429" cy="14.334" r="2.406"/>
<circle fill="#267270" cx="22.409" cy="34.218" r="2.925"/>
<line fill="none" stroke="#363635" stroke-width="0.5717" stroke-miterlimit="10" x1="18.349" y1="16.776" x2="17.376" y2="20.396"/>
<line fill="none" stroke="#363635" stroke-width="0.5717" stroke-miterlimit="10" x1="5.978" y1="25.625" x2="10.733" y2="25.918"/>
<line fill="none" stroke="#363635" stroke-width="0.5717" stroke-miterlimit="10" x1="20.443" y1="31.49" x2="19.333" y2="30.221"/>
<polygon fill="#55BAB5" points="34.099,35.243 28.681,31.796 38.737,13.935 45.313,18.539 "/>
<rect x="33.435" y="12.392" transform="matrix(0.8438 0.5366 -0.5366 0.8438 18.6126 -15.9144)" fill="none" stroke="#363635" stroke-width="0.795" stroke-miterlimit="10" width="6.422" height="23.252"/>
<rect x="43.378" y="8.652" transform="matrix(0.8442 0.536 -0.536 0.8442 13.8247 -21.4039)" fill="#363635" width="0.721" height="8.863"/>
<rect x="45.681" y="7.111" transform="matrix(-0.5377 0.8431 -0.8431 -0.5377 78.6616 -24.4781)" fill="#363635" width="0.721" height="4.431"/>
<line fill="none" stroke="#363635" stroke-width="1.0505" stroke-miterlimit="10" x1="31.355" y1="33.324" x2="24.854" y2="43.822"/>
<line fill="none" stroke="#F07542" stroke-width="0.6364" stroke-miterlimit="10" x1="37.815" y1="22.092" x2="36.389" y2="24.452"/>
<line fill="none" stroke="#F07542" stroke-width="0.6364" stroke-miterlimit="10" x1="38.281" y1="23.986" x2="35.921" y2="22.558"/>
<circle fill="none" stroke="#363635" stroke-width="0.5717" stroke-miterlimit="10" cx="16.231" cy="25.677" r="5.503"/>
<circle fill="none" stroke="#363635" stroke-width="0.5717" stroke-miterlimit="10" cx="3.695" cy="25.486" r="2.287"/>
<circle fill="none" stroke="#363635" stroke-width="0.5717" stroke-miterlimit="10" cx="18.904" cy="14.56" r="2.287"/>
<circle fill="none" stroke="#363635" stroke-width="0.5717" stroke-miterlimit="10" cx="22.465" cy="33.805" r="3.073"/>
</svg>
