<?xml version="1.0" encoding="utf-8"?>
<!-- Generator: Adobe Illustrator 16.0.0, SVG Export Plug-In . SVG Version: 6.00 Build 0)  -->
<!DOCTYPE svg PUBLIC "-//W3C//DTD SVG 1.1//EN" "http://www.w3.org/Graphics/SVG/1.1/DTD/svg11.dtd">
<svg version="1.1" id="Layer_1" xmlns="http://www.w3.org/2000/svg" xmlns:xlink="http://www.w3.org/1999/xlink" x="0px" y="0px"
	 width="50px" height="50px" viewBox="0 0 50 50" enable-background="new 0 0 50 50" xml:space="preserve">
<circle fill="#FF6819" cx="26.201" cy="27.013" r="10.759"/>
<circle fill="none" stroke="#363635" stroke-width="1.0758" stroke-miterlimit="10" cx="24.587" cy="26.475" r="10.759"/>
<circle fill="#EF7C04" stroke="#363635" stroke-width="0.5379" stroke-miterlimit="10" cx="19.746" cy="20.827" r="1.345"/>
<circle fill="#EF7C04" stroke="#363635" stroke-width="0.5379" stroke-miterlimit="10" cx="28.891" cy="27.819" r="2.824"/>
<circle fill="#EF7C04" stroke="#363635" stroke-width="0.5379" stroke-miterlimit="10" cx="19.119" cy="28.985" r="1.838"/>
<path fill="#3FCC14" d="M13.385,25.002l0.147-0.805C5.463,26.37,0.508,28.898,1.107,30.51c0.566,1.521,6.236,1.889,13.954,1.154
	c3.464-0.328,7.411-0.879,11.483-1.646c3.997-0.752,7.729-1.627,10.929-2.543c7.318-2.093,11.994-4.396,11.424-5.93
	c-0.555-1.488-6.75-1.796-14.195-1.128l0.811,1.199c6.022-0.646,10.693-0.694,11.031,0.215c0.346,0.929-3.416,2.511-9.338,4.106
	c-3.105,0.838-6.811,1.683-10.825,2.439c-4.346,0.816-8.444,1.419-11.905,1.777c-5.825,0.604-9.838,0.521-10.169-0.368
	c-0.35-0.94,2.983-2.427,9.012-4.042"/>
<path fill="#363635" d="M7.431,32.875c-3.441,0-6.818-0.354-7.315-1.688C0,30.877,0.032,30.546,0.208,30.203
	c0.857-1.663,5.471-3.762,12.34-5.612l1.45-0.369l0.132,0.521l-1.445,0.368c-6.622,1.784-11.221,3.829-11.998,5.338
	c-0.105,0.205-0.128,0.386-0.067,0.55c0.408,1.097,4.807,1.826,13.709,0.979c3.635-0.345,7.603-0.912,11.474-1.643
	c3.913-0.736,7.688-1.615,10.914-2.538c6.215-1.776,10.504-3.729,11.192-5.091c0.093-0.184,0.11-0.343,0.057-0.487
	c-0.358-0.964-4.614-1.725-13.45-0.959l-0.502-0.569c3.721-0.322,13.625-0.893,14.457,1.341c0.108,0.289,0.08,0.597-0.08,0.917
	c-0.777,1.538-4.979,3.493-11.524,5.368c-3.243,0.928-7.032,1.807-10.964,2.549c-3.887,0.73-7.873,1.302-11.521,1.648
	C12.992,32.646,10.19,32.874,7.431,32.875z M7.557,31.396c-2.218,0-3.917-0.239-4.177-0.937c-0.048-0.126-0.076-0.328,0.052-0.577
	c0.735-1.424,6.196-3.07,9.386-3.924l0.836-0.238l0.148,0.516l-0.841,0.242c-6.133,1.643-8.696,2.963-9.051,3.651
	c-0.046,0.088-0.031,0.128-0.025,0.144c0.152,0.406,2.414,0.972,9.889,0.194c3.576-0.368,7.685-0.983,11.883-1.774
	c3.87-0.729,7.606-1.57,10.805-2.434c6.216-1.678,8.793-2.978,9.134-3.636c0.037-0.076,0.025-0.108,0.021-0.12
	c-0.15-0.403-2.942-0.922-10.344-0.163l-0.319-0.474c4.458-0.458,10.688-0.837,11.166,0.45c0.046,0.122,0.073,0.316-0.048,0.553
	c-0.704,1.368-6.235,3.036-9.471,3.907c-3.211,0.867-6.961,1.713-10.846,2.443c-4.212,0.793-8.337,1.41-11.927,1.781
	C11.749,31.221,9.463,31.396,7.557,31.396z"/>
<path fill="#9AD6D2" stroke="#363635" stroke-width="0.4011" stroke-miterlimit="10" d="M36.264,21.472"/>
<polygon fill="#0000FF" points="43.047,39.527 43.605,40.502 44.727,40.593 43.973,41.426 44.232,42.52 43.206,42.061 
	42.246,42.645 42.366,41.525 41.514,40.796 42.613,40.564 "/>
<polygon fill="#0000FF" points="9.534,39.23 10.655,41.18 12.897,41.363 11.389,43.031 11.909,45.221 9.855,44.302 7.934,45.473 
	8.173,43.236 6.466,41.771 8.667,41.307 "/>
<polygon fill="#0000FF" points="32.686,8.581 34.032,9.604 35.639,9.075 35.082,10.67 36.081,12.034 34.391,11.999 33.4,13.37 
	32.915,11.751 31.305,11.236 32.693,10.272 "/>
<g>
	<g>
		<polygon fill="#EF7C04" stroke="#363635" stroke-width="0.3477" stroke-miterlimit="10" points="8.704,9.961 6.278,10.448 
			7.743,8.455 		"/>
		<polygon fill="#363635" points="8.637,9.508 7.346,9.767 8.126,8.706 		"/>
		<path fill="#267270" stroke="#363635" stroke-width="0.3477" stroke-miterlimit="10" d="M12.099,9.831
			c-1.358,0.867-2.778,1.072-3.169,0.458c-0.392-0.614,0.393-1.815,1.751-2.681c1.358-0.867,4.031-1.007,4.031-1.007
			S13.458,8.966,12.099,9.831z"/>
		<path fill="#267270" stroke="#363635" stroke-width="0.3477" stroke-miterlimit="10" d="M10.651,7.561
			C9.292,8.427,7.873,8.631,7.48,8.017C7.088,7.402,7.874,6.202,9.232,5.336c1.358-0.867,4.031-1.007,4.031-1.007
			S12.01,6.694,10.651,7.561z"/>
		<path fill="#9AD6D2" stroke="#363635" stroke-width="0.3477" stroke-miterlimit="10" d="M14.036,7.898
			c-2.447,1.56-4.921,2.053-5.528,1.103C7.9,8.048,9.392,6.013,11.838,4.454c2.446-1.561,7.081-2.092,7.081-2.092
			S16.482,6.339,14.036,7.898z"/>
		<path fill="#363635" stroke="#363635" stroke-width="0.3477" stroke-miterlimit="10" d="M7.842,8.611
			c0.084-0.567,0.837-1.484,1.659-2.292l1.854,2.907l-0.127,0.053C10.138,9.7,9.122,9.92,8.599,9.797L7.842,8.611z"/>
		<path fill="#F07542" stroke="#363635" stroke-width="0.3477" stroke-miterlimit="10" d="M15.898,2.915
			c1.646-0.396,3.021-0.553,3.021-0.553s-0.723,1.179-1.776,2.505"/>
		<circle fill="#CDD9D5" stroke="#267270" stroke-width="0.3477" stroke-miterlimit="10" cx="15.515" cy="4.519" r="0.573"/>
	</g>
	<line fill="none" stroke="#363635" stroke-width="0.3477" stroke-miterlimit="10" x1="5.712" y1="8.982" x2="1.471" y2="10.872"/>
	<line fill="none" stroke="#363635" stroke-width="0.3477" stroke-miterlimit="10" x1="8.152" y1="11.272" x2="5.463" y2="15.058"/>
	<line fill="none" stroke="#363635" stroke-width="0.2277" stroke-miterlimit="10" x1="3.947" y1="10.88" x2="1.229" y2="12.244"/>
	<line fill="none" stroke="#363635" stroke-width="0.2277" stroke-miterlimit="10" x1="5.708" y1="12.015" x2="3.76" y2="14.352"/>
</g>
<rect x="-32.254" y="21.765" fill="#FF6819" width="8.625" height="11.179"/>
<rect x="-26.505" y="24.39" fill="#FF4519" width="8.625" height="11.179"/>
<rect x="-22.193" y="28.702" fill="#0000FF" width="8.625" height="11.179"/>
<rect x="-11.86" y="4.338" fill="#3FCC14" width="8.625" height="11.179"/>
</svg>
