<?xml version="1.0" encoding="utf-8"?>
<!-- Generator: Adobe Illustrator 16.0.0, SVG Export Plug-In . SVG Version: 6.00 Build 0)  -->
<!DOCTYPE svg PUBLIC "-//W3C//DTD SVG 1.1//EN" "http://www.w3.org/Graphics/SVG/1.1/DTD/svg11.dtd">
<svg version="1.1" id="Layer_1" xmlns="http://www.w3.org/2000/svg" xmlns:xlink="http://www.w3.org/1999/xlink" x="0px" y="0px"
	 width="120px" height="40px" viewBox="0 0 120 40" enable-background="new 0 0 120 40" xml:space="preserve">
<circle fill="none" stroke="#0000FF" stroke-miterlimit="10" cx="19.978" cy="19.761" r="18.747"/>
<g>
	<path fill="#0000FF" stroke="#FFFFFF" stroke-miterlimit="10" d="M10.381,27.055c-0.784,0-1.426-0.642-1.426-1.426V14.371
		c0-0.784,0.642-1.426,1.426-1.426h1.209c0.784,0,1.736,0,2.116,0c0.379,0,1.332,0,2.116,0h2.882c0.784,0,1.6,0,1.812,0
		c0.213,0,1.027,0,1.813,0h7.247c0.784,0,1.426,0.642,1.426,1.426v11.258c0,0.784-0.642,1.426-1.426,1.426H10.381z"/>
</g>
<line fill="none" stroke="#FFFFFF" stroke-miterlimit="10" x1="16.449" y1="20.129" x2="9.366" y2="26.32"/>
<line fill="none" stroke="#FFFFFF" stroke-miterlimit="10" x1="30.688" y1="26.32" x2="23.648" y2="20.002"/>
<polyline fill="none" stroke="#FFFFFF" stroke-miterlimit="10" points="9.367,13.637 19.887,23.08 30.688,13.637 "/>
<circle fill="#FF4519" cx="60" cy="19.761" r="18.747"/>
<g>
	<path fill="none" stroke="#FFFFFF" stroke-miterlimit="10" d="M50.403,27.055c-0.784,0-1.426-0.642-1.426-1.426V14.371
		c0-0.784,0.642-1.426,1.426-1.426h1.209c0.784,0,1.736,0,2.116,0c0.379,0,1.332,0,2.115,0h2.883c0.783,0,1.6,0,1.812,0
		c0.213,0,1.027,0,1.813,0h7.247c0.784,0,1.426,0.642,1.426,1.426v11.258c0,0.784-0.642,1.426-1.426,1.426H50.403z"/>
</g>
<line fill="none" stroke="#FFFFFF" stroke-miterlimit="10" x1="56.472" y1="20.129" x2="49.389" y2="26.32"/>
<line fill="none" stroke="#FFFFFF" stroke-miterlimit="10" x1="70.71" y1="26.32" x2="63.671" y2="20.002"/>
<polyline fill="none" stroke="#FFFFFF" stroke-miterlimit="10" points="49.39,13.637 59.91,23.08 70.71,13.637 "/>
<circle fill="none" stroke="#FF4519" stroke-miterlimit="10" cx="100.315" cy="19.761" r="18.747"/>
<g>
	<path fill="#FF4519" stroke="#FFFFFF" stroke-miterlimit="10" d="M90.719,27.055c-0.784,0-1.426-0.642-1.426-1.426V14.371
		c0-0.784,0.642-1.426,1.426-1.426h1.209c0.784,0,1.736,0,2.116,0c0.379,0,1.332,0,2.115,0h2.883c0.783,0,1.6,0,1.812,0
		c0.213,0,1.027,0,1.813,0h7.247c0.784,0,1.426,0.642,1.426,1.426v11.258c0,0.784-0.642,1.426-1.426,1.426H90.719z"/>
</g>
<line fill="#FF4519" stroke="#FFFFFF" stroke-miterlimit="10" x1="96.787" y1="20.129" x2="89.704" y2="26.32"/>
<line fill="#FF4519" stroke="#FFFFFF" stroke-miterlimit="10" x1="111.025" y1="26.32" x2="103.986" y2="20.002"/>
<polyline fill="#FF4519" stroke="#FFFFFF" stroke-miterlimit="10" points="89.705,13.637 100.226,23.08 111.025,13.637 "/>
<circle fill="#FF4519" cx="25.323" cy="70.747" r="18.747"/>
<path fill="#0000FF" d="M-17.492,81.915h4.499V70.652h3.136l0.337-3.771h-3.473c0,0,0-1.407,0-2.147c0-0.889,0.178-1.24,1.037-1.24
	c0.693,0,2.436,0,2.436,0V59.58c0,0-2.566,0-3.113,0c-3.349,0-4.857,1.474-4.857,4.294c0,2.458,0,3.007,0,3.007h-2.339V70.7h2.339
	L-17.492,81.915L-17.492,81.915z"/>
<circle fill="none" stroke="#0000FF" stroke-miterlimit="10" cx="-14.677" cy="70.747" r="18.747"/>
<path fill="#0000FF" d="M22.508,81.915h4.499V70.652h3.136l0.337-3.771h-3.473c0,0,0-1.407,0-2.147c0-0.889,0.178-1.24,1.037-1.24
	c0.693,0,2.436,0,2.436,0V59.58c0,0-2.566,0-3.113,0c-3.349,0-4.857,1.474-4.857,4.294c0,2.458,0,3.007,0,3.007H20.17V70.7h2.339
	L22.508,81.915L22.508,81.915z"/>
<circle fill="none" stroke="#FF4519" stroke-miterlimit="10" cx="65.198" cy="70.747" r="18.747"/>
<path fill="#FF4519" d="M62.383,81.915h4.499V70.652h3.136l0.337-3.771h-3.473c0,0,0-1.407,0-2.147c0-0.889,0.178-1.24,1.037-1.24
	c0.693,0,2.436,0,2.436,0V59.58c0,0-2.566,0-3.113,0c-3.349,0-4.857,1.474-4.857,4.294c0,2.458,0,3.007,0,3.007h-2.339V70.7h2.339
	L62.383,81.915L62.383,81.915z"/>
</svg>
