<?xml version="1.0" encoding="utf-8"?>
<!-- Generator: Adobe Illustrator 16.0.0, SVG Export Plug-In . SVG Version: 6.00 Build 0)  -->
<!DOCTYPE svg PUBLIC "-//W3C//DTD SVG 1.1//EN" "http://www.w3.org/Graphics/SVG/1.1/DTD/svg11.dtd">
<svg version="1.1" id="Layer_1" xmlns="http://www.w3.org/2000/svg" xmlns:xlink="http://www.w3.org/1999/xlink" x="0px" y="0px"
	 width="50px" height="50px" viewBox="0 0 50 50" enable-background="new 0 0 50 50" xml:space="preserve">
<g>
	<path fill="#56BCB8" d="M12.872,19.248c0,2.956-2.397,5.352-5.353,5.352c-2.956,0-5.353-2.396-5.353-5.352
		c0-5.588,5.353-11.175,5.353-11.175S12.872,13.66,12.872,19.248z"/>
	<path fill="#9AD6D2" d="M10.221,17.972c0,1.493-1.209,2.703-2.701,2.703c-1.492,0-2.702-1.209-2.702-2.703
		c0-2.82,2.702-5.64,2.702-5.64S10.221,15.152,10.221,17.972z"/>
	<path fill="#F07542" d="M20.653,38.004c-0.8-1.701-2.529-2.881-4.534-2.881c-2.765,0-5.007,2.241-5.007,5.007
		c0,0.85,0.21,1.649,0.584,2.353c0.841,1.579,2.506,2.655,4.422,2.655h0.318"/>
	<path fill="#EF7C04" d="M18.197,43.773c0-2.728,2.212-4.938,4.94-4.938s4.938,2.21,4.938,4.938c0,1.915-1.089,3.575-2.683,4.395
		c-0.678,0.35-1.442,0.543-2.254,0.543c-1.981,0-3.689-1.165-4.478-2.846C18.363,45.229,18.197,44.521,18.197,43.773z"/>
	<path fill="#267270" d="M33.565,18.219c-0.079-8.92-4.514-16.237-4.514-16.237s-7.842,7.582-9.191,18.011
		c-0.823,6.384,0.975,12.355,2.495,16.026c0.031,0.076,0.063,0.155,0.095,0.231l2.339,3.095"/>
	<path fill="#267270" d="M25.407,38.463c0.388-3.748,1.706-10.783,6.212-16.543c0.774-0.991,1.607-1.9,2.478-2.732
		c6.385-6.121,14.61-8.076,14.61-8.076s0.107,10.906-6.369,19.19c-4.758,6.08-11.74,9.061-15.118,10.215"/>
	<path fill="none" stroke="#363635" stroke-width="1.7704" stroke-miterlimit="10" d="M31.919,19.442
		C30.7,10.606,25.366,3.916,25.366,3.916s-6.808,8.523-6.812,19.039c0,6.436,2.547,12.129,4.525,15.575
		c0.04,0.072,0.081,0.146,0.123,0.218l2.035,0.599"/>
	
		<line fill="none" stroke="#231F20" stroke-width="0.4182" stroke-miterlimit="10" x1="25.339" y1="35.195" x2="25.574" y2="13.07"/>
	<polyline fill="none" stroke="#231F20" stroke-width="0.4182" stroke-miterlimit="10" points="28.05,18.222 25.405,19.888 
		22.561,18.179 	"/>
	<polyline fill="none" stroke="#231F20" stroke-width="0.4182" stroke-miterlimit="10" points="28.334,25.35 25.375,26.694 
		21.246,24.383 	"/>
	
		<line fill="none" stroke="#231F20" stroke-width="0.4182" stroke-miterlimit="10" x1="25.375" y1="33.224" x2="21.624" y2="31.011"/>
	<path fill="none" stroke="#363635" stroke-width="1.7704" stroke-miterlimit="10" d="M25.249,39.692
		c0.007-3.768,0.608-10.898,4.509-17.086c0.67-1.065,1.407-2.052,2.189-2.968c5.732-6.736,13.718-9.512,13.718-9.512
		s1.209,10.84-4.396,19.735c-4.119,6.531-10.764,10.202-14.008,11.691"/>
	<path fill="none" stroke="#363635" stroke-width="1.7899" stroke-miterlimit="10" d="M22.27,38.731
		c-0.8-1.701-2.53-2.879-4.535-2.879c-2.764,0-5.007,2.238-5.007,5.006c0,0.849,0.211,1.649,0.585,2.352
		c0.842,1.579,2.507,2.655,4.422,2.655h0.318"/>
	<path fill="none" stroke="#231F20" stroke-width="0.4182" stroke-miterlimit="10" d="M35.554,26.505"/>
	
		<line fill="none" stroke="#231F20" stroke-width="0.4182" stroke-miterlimit="10" x1="28.495" y1="37.539" x2="40.961" y2="18.202"/>
	<polyline fill="none" stroke="#231F20" stroke-width="0.4182" stroke-miterlimit="10" points="40.549,23.728 37.42,23.728 
		35.927,20.768 	"/>
	<polyline fill="none" stroke="#231F20" stroke-width="0.4182" stroke-miterlimit="10" points="38.24,30.127 33.672,29.344 
		31.51,25.317 	"/>
	<polyline fill="none" stroke="#231F20" stroke-width="0.4182" stroke-miterlimit="10" points="33.565,35.666 29.858,34.835 
		28.428,31.236 	"/>
	<path fill="none" stroke="#363635" stroke-width="1.7899" stroke-miterlimit="10" d="M17.735,43.773
		c0-2.728,2.213-4.938,4.94-4.938c2.729,0,4.938,2.21,4.938,4.938c0,1.915-1.089,3.575-2.683,4.395
		c-0.679,0.35-1.442,0.543-2.255,0.543c-1.981,0-3.689-1.165-4.477-2.846C17.901,45.229,17.735,44.521,17.735,43.773z"/>
	<path fill="none" stroke="#363635" stroke-width="0.6296" stroke-miterlimit="10" d="M12.872,17.99
		c0,2.956-2.397,5.352-5.353,5.352c-2.956,0-5.353-2.396-5.353-5.352c0-5.588,5.353-11.176,5.353-11.176S12.872,12.402,12.872,17.99
		z"/>
</g>
</svg>
