<?xml version="1.0" encoding="utf-8"?>
<!-- Generator: Adobe Illustrator 16.0.0, SVG Export Plug-In . SVG Version: 6.00 Build 0)  -->
<!DOCTYPE svg PUBLIC "-//W3C//DTD SVG 1.1//EN" "http://www.w3.org/Graphics/SVG/1.1/DTD/svg11.dtd">
<svg version="1.1" id="Layer_1" xmlns="http://www.w3.org/2000/svg" xmlns:xlink="http://www.w3.org/1999/xlink" x="0px" y="0px"
	 width="50px" height="50px" viewBox="0 0 50 50" enable-background="new 0 0 50 50" xml:space="preserve">
<g>
	<path fill="#9AD6D2" d="M18.778,27.368c-1.068-3.697,0.455-7.78,3.923-9.8c3.475-2.024,7.779-1.333,10.468,1.423"/>
	<path fill="#9AD6D2" d="M47.554,10.617c1.064,3.694-0.456,7.779-3.922,9.799c-3.472,2.023-7.777,1.33-10.465-1.426"/>
	<path fill="#9AD6D2" d="M4.397,35.754"/>
	<path fill="#9AD6D2" d="M18.787,27.38c1.066,3.694-0.456,7.78-3.927,9.8c-3.47,2.022-7.776,1.33-10.463-1.426"/>
</g>
<g>
	<path fill="#9AD6D2" d="M33.164,18.984c-1.065-3.696,0.456-7.778,3.922-9.799c3.473-2.023,7.779-1.333,10.468,1.423"/>
	<path fill="#9AD6D2" d="M47.554,10.607"/>
	<path fill="#9AD6D2" d="M4.394,35.748c-1.069-3.694,0.455-7.778,3.923-9.799c3.474-2.023,7.779-1.335,10.465,1.424"/>
	<path fill="#9AD6D2" d="M33.17,18.997c1.068,3.696-0.453,7.779-3.924,9.804c-3.475,2.023-7.778,1.329-10.464-1.429"/>
</g>
<g>
	<path fill="none" stroke="#267270" stroke-width="1.3349" stroke-miterlimit="10" d="M16.831,28.777
		c-1.068-3.696,0.455-7.78,3.922-9.8c3.476-2.024,7.78-1.334,10.468,1.423"/>
	<path fill="none" stroke="#267270" stroke-width="1.3349" stroke-miterlimit="10" d="M45.606,12.026
		c1.067,3.694-0.455,7.78-3.922,9.799c-3.471,2.023-7.777,1.331-10.466-1.426"/>
	<path fill="none" stroke="#267270" stroke-width="1.3349" stroke-miterlimit="10" d="M2.45,37.164"/>
	<path fill="none" stroke="#267270" stroke-width="1.3349" stroke-miterlimit="10" d="M16.84,28.79
		c1.066,3.693-0.456,7.779-3.927,9.8c-3.47,2.021-7.776,1.33-10.463-1.426"/>
</g>
<g>
	<path fill="none" stroke="#267270" stroke-width="1.3349" stroke-miterlimit="10" d="M31.217,20.393
		c-1.065-3.696,0.456-7.778,3.923-9.798c3.472-2.023,7.778-1.333,10.467,1.423"/>
	<path fill="none" stroke="#267270" stroke-width="1.3349" stroke-miterlimit="10" d="M45.606,12.017"/>
	<path fill="none" stroke="#267270" stroke-width="1.3349" stroke-miterlimit="10" d="M2.448,37.158
		c-1.069-3.695,0.455-7.778,3.923-9.799c3.474-2.024,7.779-1.335,10.466,1.424"/>
	<path fill="none" stroke="#267270" stroke-width="1.3349" stroke-miterlimit="10" d="M31.223,20.406
		c1.068,3.695-0.453,7.778-3.924,9.803c-3.474,2.024-7.777,1.33-10.464-1.428"/>
</g>
<line fill="none" stroke="#267270" stroke-width="1.3074" stroke-miterlimit="10" x1="4.987" y1="28.788" x2="11.142" y2="39.348"/>
<line fill="none" stroke="#267270" stroke-width="1.3074" stroke-miterlimit="10" x1="8.025" y1="26.394" x2="14.57" y2="37.625"/>
<line fill="none" stroke="#267270" stroke-width="1.3074" stroke-miterlimit="10" x1="12.447" y1="26.377" x2="16.767" y2="33.79"/>
<line fill="none" stroke="#267270" stroke-width="1.3074" stroke-miterlimit="10" x1="2.403" y1="31.956" x2="6.844" y2="39.572"/>
<line fill="none" stroke="#267270" stroke-width="1.3074" stroke-miterlimit="10" x1="19.374" y1="20.404" x2="25.526" y2="30.965"/>
<line fill="none" stroke="#267270" stroke-width="1.3074" stroke-miterlimit="10" x1="22.412" y1="18.012" x2="28.954" y2="29.243"/>
<line fill="none" stroke="#267270" stroke-width="1.3074" stroke-miterlimit="10" x1="26.831" y1="17.995" x2="31.152" y2="25.408"/>
<line fill="none" stroke="#267270" stroke-width="1.3074" stroke-miterlimit="10" x1="16.788" y1="23.573" x2="21.229" y2="31.19"/>
<line fill="none" stroke="#267270" stroke-width="1.3074" stroke-miterlimit="10" x1="33.756" y1="12.023" x2="39.91" y2="22.582"/>
<line fill="none" stroke="#267270" stroke-width="1.3074" stroke-miterlimit="10" x1="36.796" y1="9.63" x2="43.338" y2="20.861"/>
<line fill="none" stroke="#267270" stroke-width="1.3074" stroke-miterlimit="10" x1="41.217" y1="9.612" x2="45.536" y2="17.027"/>
<line fill="none" stroke="#267270" stroke-width="1.3074" stroke-miterlimit="10" x1="31.173" y1="15.191" x2="35.612" y2="22.809"/>
</svg>
