<?xml version="1.0" encoding="utf-8"?>
<!-- Generator: Adobe Illustrator 16.0.0, SVG Export Plug-In . SVG Version: 6.00 Build 0)  -->
<!DOCTYPE svg PUBLIC "-//W3C//DTD SVG 1.1//EN" "http://www.w3.org/Graphics/SVG/1.1/DTD/svg11.dtd">
<svg version="1.1" id="Layer_1" xmlns="http://www.w3.org/2000/svg" xmlns:xlink="http://www.w3.org/1999/xlink" x="0px" y="0px"
	 width="85.04px" height="51.439px" viewBox="0 0 85.04 51.439" enable-background="new 0 0 85.04 51.439" xml:space="preserve">
<rect x="102.799" y="-3.25" fill="#A81E22" stroke="#D42027" stroke-miterlimit="10" width="89.104" height="57.02"/>
<g>
	<path fill="none" stroke="#FFFFFF" stroke-miterlimit="10" d="M63.939,22.199c0.615,2.337,1.647,5.078,3.371,7.389
		c-1.459,0.669-4.093,1.289-7.195,1.659"/>
	<path fill="none" stroke="#FFFFFF" stroke-miterlimit="10" d="M50.784,31.466c-2.955-0.24-5.761-0.82-7.933-1.878
		c1.53-2.121,2.678-4.904,3.465-7.253"/>
	<path fill="none" stroke="#FFFFFF" stroke-miterlimit="10" d="M31.441,32.094c9.355,1.277,10.099,7.357,10.099,8.229
		c0,4.859-0.007,6.928-0.007,6.928H13.959c0,0-0.012-2.914-0.012-7.532c0-1.021,0.729-6.359,9.74-7.601"/>
	<path fill="none" stroke="#FFFFFF" stroke-miterlimit="10" d="M31.807,29.588l-0.764,3.714c0,0-1.113,0.829-3.25,0.829
		s-3.845-0.829-3.845-0.829l-0.259-3.714"/>
	<path fill="none" stroke="#FFFFFF" stroke-miterlimit="10" d="M18.653,10.562v10.582c0,5.047,4.092,9.14,9.139,9.14
		s9.139-4.093,9.139-9.14V10.562"/>
	<path fill="none" stroke="#FFFFFF" stroke-miterlimit="10" d="M18.187,18.629c-0.381,0-0.69-0.31-0.69-0.69v-2.852
		c0-0.381,0.309-0.69,0.69-0.69"/>
	<path fill="none" stroke="#FFFFFF" stroke-miterlimit="10" d="M37.371,14.397c0.382,0,0.69,0.31,0.69,0.69v2.852
		c0,0.381-0.309,0.69-0.69,0.69"/>
	<g>
		<path fill="#FFFFFF" d="M26.979,27.837c0,0-0.011-0.032-0.021-0.088c0.001-0.059,0.024-0.17,0.097-0.249
			c0.074-0.075,0.17-0.172,0.295-0.211c0.123-0.048,0.259-0.07,0.397-0.083c0.084,0.009,0.121,0.012,0.195,0.025
			c0.071,0.018,0.142,0.029,0.202,0.057c0.125,0.039,0.222,0.137,0.295,0.211c0.156,0.184,0.07,0.353,0.076,0.338
			c0,0-0.018-0.025-0.049-0.07c-0.031-0.041-0.094-0.07-0.16-0.104c-0.071-0.031-0.16-0.046-0.255-0.063
			c-0.047-0.014-0.093-0.013-0.139-0.019c-0.043-0.005-0.128,0-0.164-0.001c-0.209-0.013-0.414,0.03-0.559,0.082
			c-0.068,0.036-0.125,0.056-0.159,0.099C27.001,27.81,26.979,27.837,26.979,27.837z"/>
	</g>
	<g>
		<path fill="#FFFFFF" d="M24.247,22.983c0,0,0.034,0.005,0.088,0.021c0.05,0.027,0.14,0.099,0.177,0.2
			c0.034,0.1,0.076,0.229,0.054,0.358c-0.013,0.131-0.055,0.263-0.106,0.392c-0.046,0.07-0.066,0.103-0.112,0.162
			c-0.047,0.056-0.091,0.112-0.142,0.153c-0.091,0.096-0.222,0.137-0.322,0.168c-0.234,0.057-0.345-0.099-0.335-0.087
			c0,0,0.031-0.004,0.085-0.012c0.05-0.009,0.105-0.052,0.165-0.096c0.061-0.05,0.113-0.121,0.172-0.199
			c0.034-0.035,0.053-0.077,0.08-0.115c0.024-0.036,0.058-0.114,0.075-0.146c0.106-0.182,0.161-0.384,0.182-0.536
			c-0.001-0.077,0.007-0.138-0.016-0.187C24.261,23.015,24.247,22.983,24.247,22.983z"/>
	</g>
	<g>
		<path fill="#FFFFFF" d="M30.966,22.938c0,0-0.005,0.034-0.021,0.088c-0.008,0.055,0.016,0.109,0.036,0.185
			c0.025,0.074,0.074,0.147,0.128,0.229c0.043,0.08,0.127,0.17,0.184,0.229c0.088,0.098,0.151,0.166,0.229,0.217
			c0.077,0.059,0.147,0.114,0.219,0.146c0.068,0.025,0.133,0.052,0.185,0.047c0.054-0.009,0.085-0.013,0.085-0.013
			c0.007-0.014-0.059,0.164-0.299,0.175c-0.105-0.004-0.243-0.009-0.355-0.073c-0.122-0.061-0.24-0.155-0.323-0.229
			c-0.1-0.126-0.165-0.229-0.216-0.354c-0.056-0.118-0.051-0.255-0.046-0.36c0.009-0.107,0.076-0.201,0.117-0.241
			C30.935,22.952,30.966,22.938,30.966,22.938z"/>
	</g>
	<path fill="none" stroke="#FFFFFF" stroke-miterlimit="10" d="M26.833,20.277c0,0.445,0.361,0.807,0.807,0.807
		c0.074,0,0.141-0.023,0.209-0.042c0.068,0.018,0.135,0.042,0.209,0.042c0.445,0,0.806-0.361,0.806-0.807"/>
	<g>
		<path fill="#FFFFFF" d="M30.076,15.898c0,0,0-0.021,0-0.056c0.009-0.035-0.019-0.094,0.021-0.156
			c0.066-0.141,0.207-0.324,0.423-0.437c0.211-0.127,0.473-0.235,0.765-0.309s0.609-0.099,0.926-0.11l0.464,0.028
			c0.159,0.02,0.316,0.047,0.462,0.081c0.292,0.071,0.554,0.182,0.766,0.309c0.217,0.111,0.355,0.299,0.418,0.428
			c0.042,0.059,0.019,0.134,0.026,0.166c0,0.035,0,0.055,0,0.055s-0.01-0.019-0.028-0.05c-0.024-0.03-0.03-0.079-0.084-0.116
			c-0.09-0.086-0.247-0.159-0.454-0.215c-0.199-0.071-0.457-0.089-0.723-0.124c-0.132-0.011-0.268-0.021-0.407-0.031l-0.44-0.01
			c-0.29,0-0.579,0.015-0.848,0.04c-0.265,0.035-0.523,0.053-0.722,0.125c-0.105,0.028-0.193,0.061-0.271,0.097
			c-0.091,0.031-0.123,0.074-0.179,0.109c-0.055,0.034-0.065,0.1-0.088,0.126C30.086,15.881,30.076,15.898,30.076,15.898z"/>
	</g>
	<g>
		<path fill="#FFFFFF" d="M21.143,15.898c0,0,0-0.021,0-0.056c0.009-0.035-0.019-0.094,0.021-0.156
			c0.066-0.141,0.207-0.324,0.422-0.437c0.212-0.127,0.474-0.235,0.766-0.309s0.609-0.099,0.926-0.11l0.463,0.028
			c0.159,0.02,0.316,0.047,0.462,0.081c0.292,0.071,0.554,0.182,0.766,0.309c0.217,0.111,0.355,0.299,0.418,0.428
			c0.042,0.059,0.019,0.134,0.026,0.166c0,0.035,0,0.055,0,0.055s-0.01-0.019-0.028-0.05c-0.024-0.03-0.03-0.079-0.084-0.116
			c-0.09-0.086-0.247-0.159-0.454-0.215c-0.199-0.071-0.457-0.089-0.722-0.124c-0.132-0.011-0.269-0.021-0.407-0.031l-0.441-0.01
			c-0.29,0-0.578,0.015-0.848,0.04c-0.266,0.035-0.523,0.053-0.722,0.125c-0.105,0.028-0.193,0.061-0.271,0.097
			c-0.091,0.031-0.123,0.074-0.179,0.109c-0.055,0.034-0.065,0.1-0.088,0.126C21.153,15.881,21.143,15.898,21.143,15.898z"/>
	</g>
	<g>
		<path fill="#FFFFFF" d="M24.296,23.54c0.003-0.008,0.031,0.146,0.176,0.269c0.145,0.136,0.401,0.257,0.733,0.351
			c0.667,0.181,1.605,0.269,2.542,0.265c0.936,0.003,1.874-0.086,2.541-0.266c0.332-0.094,0.589-0.215,0.734-0.35
			c0.147-0.133,0.176-0.269,0.176-0.269c-0.011-0.004,0.054,0.129-0.036,0.36c-0.089,0.228-0.335,0.494-0.676,0.696
			c-0.339,0.21-0.77,0.379-1.241,0.49c-0.461,0.118-1.002,0.166-1.498,0.174c-1.024-0.001-2.057-0.245-2.738-0.665
			c-0.341-0.203-0.587-0.47-0.676-0.696c-0.049-0.106-0.058-0.219-0.047-0.27C24.292,23.571,24.296,23.54,24.296,23.54z"/>
	</g>
	<circle fill="none" stroke="#FFFFFF" stroke-width="0.5" stroke-miterlimit="10" cx="32.414" cy="16.17" r="0.806"/>
	<circle fill="none" stroke="#FFFFFF" stroke-width="0.5" stroke-miterlimit="10" cx="23.18" cy="16.17" r="0.806"/>
	<line fill="none" stroke="#FFFFFF" stroke-miterlimit="10" x1="27.792" y1="15.548" x2="27.792" y2="19.506"/>
	<g>
		<path fill="#FFFFFF" d="M29.504,13.984c0,0,0.338-0.111,0.846-0.279c0.249-0.101,0.554-0.167,0.897-0.204
			c0.171-0.024,0.347-0.05,0.526-0.076c0.188-0.021,0.345-0.063,0.568-0.067c0.356-0.009,0.713-0.028,1.046-0.018
			c0.165,0.021,0.325,0.026,0.477,0.063c0.158,0.052,0.306,0.106,0.439,0.164c0.535,0.233,0.828,0.466,0.828,0.466l-0.024,0.07
			c0,0-0.398,0.07-0.899,0.062c-0.126-0.003-0.259-0.015-0.398-0.032c-0.152,0.009-0.313-0.005-0.479-0.007
			c-0.331-0.036-0.682-0.105-1.033-0.164c-0.132-0.021-0.329-0.01-0.489-0.019c-0.169-0.003-0.336-0.006-0.498-0.009
			c-0.324-0.013-0.635-0.018-0.902,0.028c-0.533,0.057-0.888,0.095-0.888,0.095L29.504,13.984z"/>
	</g>
	<g>
		<path fill="#FFFFFF" d="M25.975,14.058c0,0-0.355-0.038-0.888-0.095c-0.267-0.045-0.578-0.041-0.902-0.028
			c-0.161,0.003-0.328,0.006-0.498,0.009c-0.16,0.008-0.357-0.003-0.489,0.019c-0.351,0.059-0.702,0.128-1.033,0.164
			c-0.167,0.002-0.328,0.016-0.479,0.007c-0.139,0.018-0.272,0.028-0.398,0.032c-0.501,0.009-0.899-0.062-0.899-0.062l-0.024-0.07
			c0,0,0.293-0.231,0.828-0.466c0.133-0.057,0.281-0.111,0.439-0.164c0.151-0.036,0.312-0.041,0.477-0.063
			c0.333-0.011,0.69,0.009,1.046,0.018c0.223,0.004,0.379,0.046,0.568,0.067c0.179,0.026,0.355,0.051,0.526,0.076
			c0.343,0.037,0.648,0.104,0.897,0.204c0.508,0.167,0.846,0.279,0.846,0.279L25.975,14.058z"/>
	</g>
	<path fill="none" stroke="#FFFFFF" stroke-miterlimit="10" d="M36.65,6.6c-1.924,0-3.43-3.667-8.135-3.667
		c-6.49,0-9.862,3.813-9.862,8.065c0,4.361,0,2.456,0,2.456s1.723-4.655,7.624-4.655c5.732,0,7.719,1.763,10.261,1.763
		s2.935-4.976,2.935-4.976S38.575,6.6,36.65,6.6z"/>
	<path fill="none" stroke="#FFFFFF" stroke-width="0.5" stroke-miterlimit="10" d="M39.074,7.224c0,0-1.268,1.567-3.44,0.303"/>
	<path fill="none" stroke="#FFFFFF" stroke-width="0.5" stroke-miterlimit="10" d="M39.074,8.402c0,0-1.268,1.567-3.44,0.303"/>
	<path fill="none" stroke="#FFFFFF" stroke-width="0.5" stroke-miterlimit="10" d="M66.055,29.996c0,0-1.834-0.246-1.387-2.312"/>
	<path fill="none" stroke="#FFFFFF" stroke-miterlimit="10" d="M62.762,16.822c0.971,0.369-3.434-1.064-4.09-3.567"/>
	<path fill="none" stroke="#FFFFFF" stroke-miterlimit="10" d="M60.508,16.996c0.971,0.369-5.449-1.229-5.449-3.915"/>
	<path fill="none" stroke="#FFFFFF" stroke-width="0.5" stroke-miterlimit="10" d="M64.982,30.486c0,0-1.832-0.248-1.387-2.312"/>
	<line fill="none" stroke="#FFFFFF" stroke-miterlimit="10" x1="19.511" y1="40.322" x2="19.511" y2="47.25"/>
	<line fill="none" stroke="#FFFFFF" stroke-miterlimit="10" x1="35.978" y1="40.322" x2="35.978" y2="47.25"/>
	<path fill="none" stroke="#FFFFFF" stroke-miterlimit="10" d="M58.012,34.257c8.322,0.985,8.977,6.319,8.977,7.074
		c0,4.151-0.006,5.919-0.006,5.919H43.422c0,0-0.01-2.489-0.01-6.438c0-0.872,0.625-5.433,8.323-6.492"/>
	<path fill="none" stroke="#FFFFFF" stroke-miterlimit="10" d="M58.672,32.16l-0.652,3.173c0,0-0.951,0.708-2.779,0.708
		c-1.826,0-3.283-0.708-3.283-0.708l-0.221-3.173"/>
	<path fill="none" stroke="#FFFFFF" stroke-miterlimit="10" d="M47.434,17.528v7.417c0,4.313,3.496,7.809,7.807,7.809
		c4.313,0,7.812-3.495,7.812-7.809v-7.967"/>
	<path fill="none" stroke="#FFFFFF" stroke-miterlimit="10" d="M63.35,14.743c-0.426-4.187-3.961-7.453-8.26-7.452
		c-4.363,0-7.939,3.366-8.277,7.642v2.827c1.113,0,4.043-1.277,4.488-3.692c0,0,1.063,3.001,12.008,3.001L63.35,14.743z"/>
	<path fill="none" stroke="#FFFFFF" stroke-miterlimit="10" d="M47.036,22.797c-0.324,0-0.591-0.265-0.591-0.589V19.77
		c0-0.325,0.267-0.59,0.591-0.59"/>
	<path fill="none" stroke="#FFFFFF" stroke-miterlimit="10" d="M63.426,19.181c0.326,0,0.59,0.265,0.59,0.59v2.438
		c0,0.325-0.264,0.589-0.59,0.589"/>
	<g>
		<path fill="#FFFFFF" d="M54.547,30.664c0.005,0.013-0.07-0.127,0.063-0.288c0.119-0.152,0.356-0.24,0.593-0.251
			c0.071,0.008,0.104,0.01,0.166,0.021c0.062,0.016,0.121,0.025,0.172,0.048c0.107,0.032,0.19,0.116,0.254,0.182
			c0.134,0.156,0.06,0.301,0.063,0.288c0,0-0.051-0.108-0.179-0.148c-0.061-0.026-0.137-0.039-0.219-0.054
			c-0.041-0.012-0.08-0.011-0.119-0.017c-0.036-0.004-0.109,0-0.141-0.001c-0.179-0.01-0.354,0.026-0.478,0.07
			c-0.06,0.03-0.106,0.048-0.136,0.084C54.565,30.641,54.547,30.664,54.547,30.664z"/>
	</g>
	<g>
		<path fill="#FFFFFF" d="M52.211,26.517c-0.015-0.001,0.145-0.006,0.229,0.188c0.027,0.085,0.064,0.195,0.046,0.307
			c-0.013,0.116-0.042,0.216-0.096,0.344c-0.052,0.078-0.126,0.186-0.213,0.262c-0.077,0.079-0.189,0.115-0.275,0.144
			c-0.198,0.048-0.295-0.083-0.286-0.073c0,0,0.12,0.004,0.215-0.092c0.051-0.042,0.097-0.104,0.146-0.171
			c0.052-0.061,0.088-0.131,0.139-0.231c0.033-0.061,0.081-0.153,0.099-0.229c0.024-0.079,0.048-0.152,0.052-0.219
			c-0.002-0.065,0.005-0.117-0.015-0.159C52.224,26.543,52.211,26.517,52.211,26.517z"/>
	</g>
	<g>
		<path fill="#FFFFFF" d="M57.954,26.478c0,0-0.006,0.029-0.02,0.075c-0.007,0.046,0.014,0.093,0.029,0.157
			c0.054,0.12,0.146,0.271,0.274,0.396c0.128,0.151,0.253,0.236,0.376,0.306c0.116,0.065,0.23,0.029,0.23,0.029
			c0.006-0.012-0.051,0.142-0.256,0.148c-0.09-0.003-0.207-0.007-0.305-0.063c-0.051-0.021-0.101-0.06-0.152-0.094
			c-0.051-0.038-0.075-0.061-0.129-0.106c-0.15-0.18-0.25-0.413-0.219-0.604C57.813,26.512,57.965,26.473,57.954,26.478z"/>
	</g>
	<path fill="none" stroke="#FFFFFF" stroke-miterlimit="10" d="M54.422,24.205c0,0.379,0.309,0.688,0.688,0.688
		c0.063,0,0.121-0.021,0.179-0.036c0.059,0.017,0.116,0.036,0.178,0.036c0.383,0,0.688-0.31,0.688-0.688"/>
	<g>
		<path fill="#FFFFFF" d="M57.193,20.463c0,0,0-0.017,0-0.048c0.009-0.029-0.016-0.08,0.021-0.133
			c0.056-0.12,0.177-0.277,0.359-0.372c0.359-0.229,0.905-0.342,1.445-0.356l0.396,0.03c0.135,0.022,0.27,0.037,0.395,0.065
			c0.251,0.056,0.475,0.154,0.654,0.261c0.187,0.094,0.305,0.254,0.357,0.364c0.035,0.05,0.016,0.114,0.021,0.142
			c0,0.031,0,0.047,0,0.047c-0.004,0.003-0.025-0.07-0.096-0.142c-0.076-0.073-0.211-0.135-0.389-0.184
			c-0.169-0.063-0.391-0.073-0.615-0.109c-0.113-0.016-0.23-0.019-0.349-0.03l-0.377-0.001c-0.247-0.005-0.496,0.001-0.726,0.031
			c-0.226,0.035-0.446,0.047-0.617,0.109c-0.178,0.048-0.311,0.112-0.383,0.176c-0.047,0.029-0.058,0.085-0.076,0.107
			C57.202,20.448,57.193,20.463,57.193,20.463z"/>
	</g>
	<g>
		<path fill="#FFFFFF" d="M49.561,20.463c0,0,0-0.017,0-0.048c0.008-0.029-0.016-0.08,0.02-0.133
			c0.057-0.12,0.178-0.277,0.361-0.372c0.182-0.106,0.403-0.205,0.654-0.261c0.253-0.053,0.511-0.082,0.799-0.096
			c0.506,0.014,1.091,0.129,1.438,0.356c0.186,0.094,0.304,0.254,0.356,0.364c0.035,0.05,0.017,0.114,0.022,0.142
			c0,0.031,0,0.047,0,0.047c-0.004,0.003-0.026-0.07-0.097-0.142c-0.077-0.073-0.211-0.135-0.389-0.184
			c-0.169-0.063-0.392-0.073-0.616-0.109c-0.222-0.029-0.467-0.036-0.732-0.032c-0.23-0.005-0.49,0.001-0.717,0.031
			c-0.226,0.035-0.447,0.047-0.615,0.109c-0.181,0.048-0.313,0.112-0.385,0.176c-0.048,0.029-0.058,0.085-0.076,0.107
			C49.568,20.448,49.561,20.463,49.561,20.463z"/>
	</g>
	<g>
		<path fill="#FFFFFF" d="M52.254,26.992c0,0,0.014,0.022,0.037,0.067c0.033,0.036,0.047,0.127,0.123,0.174
			c0.078,0.051,0.121,0.109,0.246,0.151c0.107,0.051,0.229,0.094,0.377,0.131c0.135,0.047,0.299,0.067,0.465,0.104
			c0.162,0.041,0.351,0.037,0.531,0.071c0.184,0.024,0.381,0.019,0.573,0.042c0.19,0.005,0.388,0.01,0.582,0.014
			c0.431,0,0.824-0.023,1.185-0.057c0.181-0.033,0.369-0.03,0.53-0.071c0.165-0.035,0.328-0.057,0.466-0.104
			c0.146-0.036,0.269-0.08,0.375-0.131c0.123-0.038,0.18-0.111,0.254-0.163c0.073-0.052,0.082-0.119,0.114-0.16
			c0.025-0.045,0.039-0.068,0.039-0.068s0,0.025,0,0.075c-0.011,0.044,0.021,0.146-0.037,0.229c-0.05,0.082-0.103,0.214-0.209,0.301
			c-0.097,0.105-0.218,0.214-0.366,0.292c-0.287,0.189-0.656,0.32-1.059,0.423c-0.415,0.104-0.857,0.137-1.266,0.15
			c-0.223-0.014-0.445-0.026-0.666-0.04c-0.215-0.029-0.424-0.064-0.625-0.111c-0.401-0.103-0.771-0.232-1.06-0.423
			c-0.147-0.078-0.27-0.187-0.364-0.292c-0.104-0.082-0.17-0.229-0.217-0.313c-0.057-0.086-0.018-0.166-0.029-0.216
			C52.254,27.02,52.254,26.992,52.254,26.992z"/>
	</g>
	<ellipse fill="none" stroke="#FFFFFF" stroke-width="0.5" stroke-miterlimit="10" cx="59.191" cy="20.499" rx="0.688" ry="0.491"/>
	<ellipse fill="none" stroke="#FFFFFF" stroke-width="0.5" stroke-miterlimit="10" cx="51.301" cy="20.499" rx="0.688" ry="0.491"/>
	<line fill="none" stroke="#FFFFFF" stroke-miterlimit="10" x1="55.24" y1="20.165" x2="55.24" y2="23.546"/>
	<g>
		<path fill="#FFFFFF" d="M49.54,18.731c0,0,0.233-0.034,0.586-0.084c0.176-0.023,0.381-0.052,0.601-0.082
			c0.11-0.014,0.224-0.027,0.339-0.042c0.126-0.011,0.209-0.036,0.374-0.037c0.237,0,0.476-0.003,0.694,0.007
			c0.222,0.016,0.426,0.056,0.601,0.088c0.351,0.071,0.579,0.167,0.579,0.167l-0.004,0.036c0,0-0.242,0.061-0.6,0.082
			c-0.179,0.006-0.387,0.017-0.607,0c-0.221-0.021-0.454-0.061-0.688-0.094c-0.071-0.012-0.225-0.001-0.33-0.003
			c-0.117,0.001-0.23,0.002-0.342,0.003c-0.223,0-0.431,0-0.607,0c-0.355-0.003-0.594-0.005-0.594-0.005L49.54,18.731z"/>
	</g>
	<g>
		<path fill="#FFFFFF" d="M60.942,18.767c0,0-0.236,0.002-0.594,0.005c-0.178,0-0.385,0-0.607,0.001
			c-0.109-0.001-0.226-0.002-0.342-0.004c-0.105,0.002-0.259-0.009-0.33,0.003c-0.234,0.033-0.468,0.071-0.688,0.094
			c-0.221,0.016-0.43,0.005-0.607-0.001c-0.357-0.021-0.6-0.082-0.6-0.082l-0.004-0.036c0,0,0.229-0.096,0.578-0.167
			c0.176-0.032,0.379-0.072,0.601-0.088c0.222-0.011,0.459-0.007,0.696-0.007c0.164,0.001,0.248,0.025,0.373,0.037
			c0.115,0.016,0.229,0.029,0.34,0.042c0.22,0.03,0.425,0.059,0.602,0.082c0.352,0.051,0.585,0.084,0.585,0.084L60.942,18.767z"/>
	</g>
	<line fill="none" stroke="#FFFFFF" stroke-miterlimit="10" x1="48.167" y1="41.331" x2="48.167" y2="47.25"/>
	<line fill="none" stroke="#FFFFFF" stroke-miterlimit="10" x1="62.236" y1="41.331" x2="62.236" y2="47.25"/>
	<path fill="none" stroke="#FFFFFF" stroke-miterlimit="10" d="M67.311,27.711"/>
	<path fill="none" stroke="#FFFFFF" stroke-miterlimit="10" d="M67.311,27.711"/>
	<line fill="none" stroke="#FFFFFF" stroke-miterlimit="10" x1="0.365" y1="47.25" x2="84.674" y2="47.25"/>
</g>
</svg>
