<?xml version="1.0" encoding="utf-8"?>
<!-- Generator: Adobe Illustrator 16.0.0, SVG Export Plug-In . SVG Version: 6.00 Build 0)  -->
<!DOCTYPE svg PUBLIC "-//W3C//DTD SVG 1.1//EN" "http://www.w3.org/Graphics/SVG/1.1/DTD/svg11.dtd">
<svg version="1.1" id="Layer_1" xmlns="http://www.w3.org/2000/svg" xmlns:xlink="http://www.w3.org/1999/xlink" x="0px" y="0px"
	 width="120.001px" height="40px" viewBox="0 0 120.001 40" enable-background="new 0 0 120.001 40" xml:space="preserve">
<circle fill="none" stroke="#0000FF" stroke-miterlimit="10" cx="19.978" cy="20" r="18.747"/>
<path fill="#0000FF" d="M27.428,16.819c0,5.676-7.678,15.285-7.678,15.285s-7.678-9.609-7.678-15.285
	c0-4.24,3.438-7.678,7.678-7.678S27.428,12.579,27.428,16.819z"/>
<circle fill="#FFFFFF" cx="19.75" cy="15.982" r="3.038"/>
<circle fill="#FF4519" cx="60" cy="20" r="18.747"/>
<path fill="#FFFFFF" d="M67.45,16.819c0,5.676-7.678,15.285-7.678,15.285s-7.679-9.609-7.679-15.285c0-4.24,3.438-7.678,7.679-7.678
	S67.45,12.579,67.45,16.819z"/>
<circle fill="#FF4519" cx="59.772" cy="15.982" r="3.038"/>
<circle fill="none" stroke="#FF4519" stroke-miterlimit="10" cx="99.438" cy="20" r="18.747"/>
<path fill="#FF4519" d="M106.889,16.819c0,5.676-7.678,15.285-7.678,15.285s-7.679-9.609-7.679-15.285
	c0-4.24,3.438-7.678,7.679-7.678S106.889,12.579,106.889,16.819z"/>
<circle fill="#FFFFFF" cx="99.211" cy="15.982" r="3.038"/>
</svg>
