<?xml version="1.0" encoding="utf-8"?>
<!-- Generator: Adobe Illustrator 16.0.0, SVG Export Plug-In . SVG Version: 6.00 Build 0)  -->
<!DOCTYPE svg PUBLIC "-//W3C//DTD SVG 1.1//EN" "http://www.w3.org/Graphics/SVG/1.1/DTD/svg11.dtd">
<svg version="1.1" id="Layer_1" xmlns="http://www.w3.org/2000/svg" xmlns:xlink="http://www.w3.org/1999/xlink" x="0px" y="0px"
	 width="120px" height="40px" viewBox="0 0 120 40" enable-background="new 0 0 120 40" xml:space="preserve">
<circle fill="none" stroke="#0000FF" stroke-miterlimit="10" cx="19.978" cy="19.761" r="18.747"/>
<path fill="#0000FF" d="M24.436,22.13c-0.734,0.71-0.984,1.651-1.512,2.158c-0.658,0.634-3.121-0.104-4.924-1.976
	c-1.803-1.874-2.93-4.523-2.021-5.398c0.909-0.876,1.862-1.104,2.373-1.596c1.179-1.135-4.066-7.162-5.784-5.508
	c-5.582,5.378,0.969,14.094,2.308,15.44c1.297,1.391,9.563,8.438,15.097,2.627C31.625,25.75,26.152,20.476,24.436,22.13z"/>
<circle fill="#FF4519" cx="60" cy="19.761" r="18.747"/>
<path fill="#0000FF" d="M64.458,22.13c-0.734,0.71-0.984,1.651-1.512,2.158c-0.658,0.634-3.12-0.104-4.924-1.976
	c-1.804-1.874-2.931-4.523-2.021-5.398c0.908-0.876,1.861-1.104,2.373-1.596c1.179-1.135-4.066-7.162-5.785-5.508
	c-5.582,5.378,0.97,14.094,2.309,15.44c1.297,1.391,9.563,8.438,15.097,2.627C71.647,25.75,66.175,20.476,64.458,22.13z"/>
<circle fill="none" stroke="#FF4519" stroke-miterlimit="10" cx="99.902" cy="19.761" r="18.747"/>
<path fill="#FF4519" d="M104.36,22.13c-0.734,0.71-0.984,1.651-1.512,2.158c-0.658,0.634-3.12-0.104-4.924-1.976
	c-1.804-1.874-2.931-4.523-2.021-5.398c0.908-0.876,1.861-1.104,2.373-1.596c1.179-1.135-4.066-7.162-5.785-5.508
	c-5.582,5.378,0.97,14.094,2.309,15.44c1.297,1.391,9.563,8.438,15.097,2.627C111.55,25.75,106.077,20.476,104.36,22.13z"/>
</svg>
