<?xml version="1.0" encoding="utf-8"?>
<!-- Generator: Adobe Illustrator 16.0.0, SVG Export Plug-In . SVG Version: 6.00 Build 0)  -->
<!DOCTYPE svg PUBLIC "-//W3C//DTD SVG 1.1//EN" "http://www.w3.org/Graphics/SVG/1.1/DTD/svg11.dtd">
<svg version="1.1" id="Layer_1" xmlns="http://www.w3.org/2000/svg" xmlns:xlink="http://www.w3.org/1999/xlink" x="0px" y="0px"
	 width="85.04px" height="51.44px" viewBox="0 0 85.04 51.44" enable-background="new 0 0 85.04 51.44" xml:space="preserve">
<path fill="none" stroke="#FFFFFF" stroke-width="1.9418" stroke-miterlimit="10" d="M62.551,25.254
	c0-11.218-9.096-20.313-20.316-20.313c-11.22,0-20.315,9.095-20.315,20.313c0,11.223,9.096,20.318,20.315,20.318
	C53.455,45.572,62.551,36.477,62.551,25.254z"/>
<g>
	<path fill="#FFFFFF" d="M23.258,28.258c0,0-0.026-0.185-0.075-0.529c-0.036-0.172-0.034-0.381,0.011-0.655
		c0.027-0.274,0.076-0.616,0.207-0.923c0.11-0.33,0.242-0.705,0.451-1.062c0.096-0.187,0.199-0.383,0.318-0.579
		c0.131-0.181,0.268-0.368,0.408-0.562c0.563-0.792,1.312-1.569,2.203-2.338c0.447-0.377,0.941-0.727,1.451-1.103
		c0.525-0.333,1.071-0.699,1.655-1.014c1.168-0.633,2.443-1.24,3.818-1.691c0.679-0.261,1.391-0.448,2.113-0.634
		c0.718-0.213,1.463-0.329,2.212-0.47c0.75-0.135,1.515-0.211,2.282-0.293c0.769-0.055,1.544-0.071,2.318-0.106
		c0.883,0.034,1.46,0.048,2.248,0.1c0.789,0.08,1.604,0.158,2.353,0.294c0.749,0.142,1.495,0.252,2.213,0.468
		c0.722,0.189,1.435,0.371,2.114,0.633c1.375,0.452,2.651,1.058,3.819,1.69c0.584,0.314,1.129,0.683,1.655,1.014
		c0.511,0.376,1.003,0.728,1.451,1.104c0.891,0.77,1.641,1.547,2.202,2.341c0.141,0.193,0.276,0.381,0.407,0.562
		c0.118,0.197,0.223,0.393,0.318,0.58c0.208,0.357,0.339,0.732,0.449,1.063c0.133,0.314,0.172,0.636,0.199,0.903
		c0.043,0.262,0.05,0.484,0.016,0.671c-0.041,0.362-0.075,0.535-0.075,0.535s-0.072-0.17-0.208-0.488
		c-0.047-0.155-0.151-0.331-0.301-0.521c-0.14-0.191-0.271-0.408-0.497-0.616c-0.202-0.216-0.418-0.445-0.718-0.654
		c-0.143-0.107-0.284-0.221-0.425-0.341c-0.16-0.105-0.326-0.215-0.498-0.328c-0.671-0.453-1.52-0.854-2.424-1.271
		c-0.926-0.398-1.944-0.78-3.048-1.111c-1.104-0.328-2.271-0.645-3.504-0.872c-1.221-0.262-2.505-0.419-3.801-0.571
		c-0.648-0.084-1.261-0.074-1.894-0.147c-0.64-0.035-1.5-0.035-2.053-0.055c-0.661,0.02-1.324,0.018-1.982,0.05
		c-0.655,0.071-1.318,0.063-1.965,0.149c-1.297,0.146-2.579,0.31-3.801,0.568c-1.232,0.228-2.401,0.544-3.505,0.872
		c-1.104,0.332-2.124,0.713-3.049,1.113c-0.904,0.419-1.755,0.818-2.424,1.272c-0.172,0.113-0.338,0.224-0.498,0.329
		c-0.141,0.12-0.283,0.232-0.425,0.341c-0.3,0.21-0.516,0.438-0.718,0.655c-0.228,0.215-0.35,0.411-0.49,0.596
		c-0.07,0.097-0.135,0.187-0.194,0.269c-0.048,0.094-0.077,0.188-0.111,0.268C23.33,28.086,23.258,28.258,23.258,28.258z"/>
</g>
<line fill="none" stroke="#FFFFFF" stroke-width="1.7099" stroke-miterlimit="10" x1="56.88" y1="39.332" x2="64.516" y2="47.285"/>
<path fill="#FFFFFF" d="M42.806,18.443c-3.918,0-7.099,3.176-7.099,7.084c0,3.916,3.181,7.09,7.099,7.09
	c3.91,0,7.08-3.174,7.08-7.09C49.886,21.619,46.716,18.443,42.806,18.443z M47.248,28.061c-0.501,0-0.912-0.329-1.063-0.778
	c-0.692,1.155-1.941,1.937-3.385,1.937c-2.188,0-3.967-1.775-3.967-3.963c0-2.185,1.778-3.96,3.967-3.96
	c2.187,0,3.958,1.775,3.958,3.96c0,0.242-0.029,0.478-0.071,0.709c0.168-0.099,0.353-0.17,0.561-0.17
	c0.624,0,1.131,0.51,1.131,1.133C48.379,27.553,47.872,28.061,47.248,28.061z"/>
</svg>
