<?xml version="1.0" encoding="utf-8"?>
<!-- Generator: Adobe Illustrator 16.0.0, SVG Export Plug-In . SVG Version: 6.00 Build 0)  -->
<!DOCTYPE svg PUBLIC "-//W3C//DTD SVG 1.1//EN" "http://www.w3.org/Graphics/SVG/1.1/DTD/svg11.dtd">
<svg version="1.1" id="Layer_1" xmlns="http://www.w3.org/2000/svg" xmlns:xlink="http://www.w3.org/1999/xlink" x="0px" y="0px"
	 width="52.75px" height="68px" viewBox="0 0 52.75 68" enable-background="new 0 0 52.75 68" xml:space="preserve">
<g>
	
		<line fill="none" stroke="#363635" stroke-width="1.2787" stroke-miterlimit="10" x1="18.194" y1="10.212" x2="21.978" y2="20.401"/>
	
		<line fill="none" stroke="#363635" stroke-width="1.2787" stroke-miterlimit="10" x1="33.486" y1="10.212" x2="29.702" y2="20.401"/>
	<rect x="10.75" y="38" fill="#9AD6D2" width="33" height="27"/>
	<rect x="16.75" y="16" fill="#9AD6D2" width="24" height="19"/>
	<rect x="24.25" y="36.5" fill="#9AD6D2" stroke="#363635" stroke-miterlimit="10" width="3" height="3"/>
	<rect x="14.25" y="16.5" fill="none" stroke="#363635" stroke-miterlimit="10" width="24" height="20"/>
	<rect x="19.25" y="29.5" fill="#EF7C04" stroke="#363635" stroke-miterlimit="10" width="13" height="3"/>
	<rect x="43.25" y="39.5" fill="#9AD6D2" stroke="#363635" stroke-miterlimit="10" width="6" height="7"/>
	<rect x="46.25" y="46.5" fill="#9AD6D2" stroke="#363635" stroke-miterlimit="10" width="3" height="7"/>
	<rect x="46.25" y="52.5" fill="#9AD6D2" stroke="#363635" stroke-miterlimit="10" width="3" height="7"/>
	<rect x="3.25" y="39.5" fill="#9AD6D2" stroke="#363635" stroke-miterlimit="10" width="7" height="7"/>
	<rect x="3.25" y="46.5" fill="#9AD6D2" stroke="#363635" stroke-miterlimit="10" width="3" height="7"/>
	<rect x="3.25" y="52.5" fill="#9AD6D2" stroke="#363635" stroke-miterlimit="10" width="3" height="7"/>
	<rect x="10.25" y="39.5" fill="none" stroke="#363635" stroke-miterlimit="10" width="33" height="27"/>
	<circle fill="#CDD9D5" stroke="#267270" stroke-miterlimit="10" cx="21.205" cy="22.376" r="2.238"/>
	<circle fill="#CDD9D5" stroke="#267270" stroke-miterlimit="10" cx="30.156" cy="22.376" r="2.238"/>
	<circle fill="#EF7C04" stroke="#363635" stroke-width="2" stroke-miterlimit="10" cx="48.418" cy="59.375" r="3.09"/>
	<circle fill="#363635" stroke="#363635" stroke-width="0.3748" stroke-miterlimit="10" cx="37.828" cy="54.261" r="1.811"/>
	<circle fill="#267270" stroke="#363635" stroke-width="0.3748" stroke-miterlimit="10" cx="33.353" cy="10.031" r="1.812"/>
	<circle fill="#267270" stroke="#363635" stroke-width="0.3748" stroke-miterlimit="10" cx="18.008" cy="10.031" r="1.811"/>
	<circle fill="#363635" stroke="#363635" stroke-width="0.3748" stroke-miterlimit="10" cx="14.172" cy="54.261" r="1.811"/>
	<circle fill="#EF7C04" stroke="#363635" stroke-width="2" stroke-miterlimit="10" cx="4.582" cy="59.375" r="3.09"/>
	<rect x="19.25" y="42.5" fill="#CDD9D5" stroke="#267270" stroke-miterlimit="10" width="13" height="13"/>
	<line fill="none" stroke="#363635" stroke-miterlimit="10" x1="21.25" y1="43" x2="21.25" y2="46"/>
	<line fill="none" stroke="#363635" stroke-miterlimit="10" x1="23.25" y1="43" x2="23.25" y2="46"/>
	<line fill="none" stroke="#363635" stroke-miterlimit="10" x1="28.25" y1="43" x2="28.25" y2="46"/>
	<line fill="none" stroke="#363635" stroke-miterlimit="10" x1="30.25" y1="43" x2="30.25" y2="46"/>
	<polygon fill="#EF7C04" stroke="#363635" stroke-width="0.7933" stroke-miterlimit="10" points="33.878,3.997 33.841,1.599 
		25.557,2.029 25.587,3.618 25.578,4.384 17.482,5.839 27.713,6.281 27.739,4.111 	"/>
</g>
</svg>
