<?xml version="1.0" encoding="utf-8"?>
<!-- Generator: Adobe Illustrator 16.0.0, SVG Export Plug-In . SVG Version: 6.00 Build 0)  -->
<!DOCTYPE svg PUBLIC "-//W3C//DTD SVG 1.1//EN" "http://www.w3.org/Graphics/SVG/1.1/DTD/svg11.dtd">
<svg version="1.1" id="Layer_1" xmlns="http://www.w3.org/2000/svg" xmlns:xlink="http://www.w3.org/1999/xlink" x="0px" y="0px"
	 width="85.04px" height="51.44px" viewBox="0 0 85.04 51.44" enable-background="new 0 0 85.04 51.44" xml:space="preserve">
<rect x="99.792" y="6.976" fill="#A81E22" stroke="#D42027" stroke-miterlimit="10" width="89.104" height="57.02"/>
<g>
	<polygon fill="#FFFFFF" points="55.605,42.478 3.645,42.478 3.645,3.08 72.896,3.08 72.896,9.228 71.172,9.228 71.172,4.805 
		5.37,4.805 5.37,40.753 54.496,40.753 	"/>
	<path fill="none" stroke="#FFFFFF" stroke-width="0.8295" stroke-miterlimit="10" d="M61.55,17.353l-0.003,7.685
		c0,4.76,3.859,8.618,8.618,8.618s8.616-3.858,8.616-8.618v-8.491"/>
	<path fill="none" stroke="#FFFFFF" stroke-width="0.7876" stroke-miterlimit="10" d="M79.327,15.694
		c0,3.169-12.022-1.556-15.425-1.556c-1.315,0.156-1.651,2.832-2.353,3.215c-1.555,0-1.659-8.239,8.669-8.239
		c0.622,0,1.229,0.038,1.815,0.113C76.193,9.76,79.327,12.137,79.327,15.694z"/>
	<path fill="none" stroke="#FFFFFF" stroke-width="0.8295" stroke-miterlimit="10" d="M61.107,22.668
		c-0.358,0-0.65-0.292-0.65-0.652v-2.688c0-0.361,0.292-0.652,0.65-0.652"/>
	<path fill="none" stroke="#FFFFFF" stroke-width="0.8295" stroke-miterlimit="10" d="M79.198,18.676
		c0.358,0,0.649,0.292,0.649,0.652v2.688c0,0.361-0.291,0.652-0.649,0.652"/>
	<g>
		<path fill="#FFFFFF" d="M69.116,31.562c0,0-0.016-0.047-0.03-0.126c0.002-0.082,0.034-0.243,0.14-0.356
			c0.104-0.109,0.245-0.242,0.422-0.306c0.087-0.039,0.179-0.064,0.275-0.084c0.104-0.019,0.179-0.022,0.31-0.031
			c0.155,0.011,0.375,0.033,0.554,0.115c0.177,0.062,0.316,0.196,0.422,0.305c0.224,0.262,0.101,0.504,0.108,0.483
			c0,0-0.025-0.037-0.07-0.101c-0.045-0.059-0.136-0.102-0.229-0.147c-0.103-0.045-0.229-0.069-0.367-0.087
			c-0.131-0.019-0.259-0.029-0.449-0.031c-0.042,0.005-0.141-0.001-0.205,0.008c-0.07,0.014-0.146,0.005-0.212,0.023
			c-0.14,0.017-0.265,0.042-0.367,0.086c-0.098,0.053-0.18,0.08-0.228,0.141C69.147,31.522,69.116,31.562,69.116,31.562z"/>
	</g>
	<g>
		<path fill="#FFFFFF" d="M66.822,26.773c0,0,0.032,0.005,0.083,0.02c0.048,0.026,0.133,0.093,0.168,0.188
			c0.031,0.094,0.071,0.217,0.051,0.339c-0.015,0.128-0.047,0.238-0.105,0.378c-0.057,0.087-0.14,0.204-0.234,0.289
			c-0.086,0.089-0.209,0.128-0.304,0.158c-0.221,0.053-0.326-0.092-0.316-0.081c0,0,0.029-0.004,0.08-0.011
			c0.048-0.009,0.1-0.05,0.155-0.091c0.058-0.046,0.107-0.115,0.162-0.188c0.057-0.066,0.097-0.144,0.152-0.256
			c0.037-0.066,0.09-0.169,0.108-0.253c0.027-0.088,0.053-0.168,0.057-0.242c-0.001-0.072,0.007-0.129-0.015-0.176
			C66.836,26.803,66.822,26.773,66.822,26.773z"/>
	</g>
	<g>
		<path fill="#FFFFFF" d="M73.158,26.729c0,0-0.005,0.032-0.021,0.083c-0.008,0.051,0.016,0.103,0.033,0.174
			c0.058,0.133,0.159,0.303,0.302,0.44c0.022,0.023,0.074,0.086,0.104,0.112c0.034,0.028,0.063,0.062,0.103,0.085
			c0.073,0.056,0.14,0.107,0.207,0.137c0.065,0.024,0.126,0.049,0.175,0.044c0.051-0.008,0.08-0.012,0.08-0.012
			c0.006-0.013-0.055,0.155-0.282,0.165c-0.099-0.003-0.229-0.007-0.335-0.069c-0.057-0.024-0.111-0.065-0.168-0.104
			c-0.058-0.043-0.083-0.065-0.145-0.119c-0.079-0.104-0.15-0.212-0.196-0.328c-0.052-0.111-0.048-0.24-0.043-0.34
			c0.009-0.102,0.072-0.189,0.11-0.227C73.129,26.742,73.158,26.729,73.158,26.729z"/>
	</g>
	<path fill="none" stroke="#FFFFFF" stroke-width="0.4147" stroke-miterlimit="10" d="M68.36,24.439
		c0,0.813,0.659,1.476,1.475,1.476c0.139,0,0.259-0.043,0.384-0.078c0.125,0.035,0.246,0.078,0.382,0.078
		c0.814,0,1.474-0.662,1.474-1.476"/>
	<g>
		<path fill="#FFFFFF" d="M72.319,20.35c0,0,0-0.019,0-0.053c0.009-0.034-0.018-0.088,0.021-0.147
			c0.062-0.132,0.195-0.306,0.398-0.412c0.396-0.253,0.998-0.378,1.595-0.395l0.437,0.034c0.149,0.024,0.298,0.041,0.437,0.072
			c0.276,0.062,0.522,0.17,0.722,0.289c0.205,0.104,0.335,0.282,0.395,0.403c0.039,0.056,0.018,0.126,0.024,0.157
			c0,0.034,0,0.052,0,0.052s-0.009-0.017-0.026-0.047c-0.022-0.028-0.028-0.074-0.079-0.11c-0.084-0.081-0.232-0.15-0.428-0.204
			c-0.188-0.069-0.432-0.081-0.681-0.121c-0.125-0.019-0.254-0.021-0.384-0.034l-0.416-0.001c-0.273-0.006-0.547,0.001-0.8,0.035
			c-0.249,0.038-0.493,0.052-0.681,0.121c-0.197,0.053-0.343,0.125-0.424,0.195c-0.052,0.033-0.062,0.095-0.083,0.12
			C72.328,20.334,72.319,20.35,72.319,20.35z"/>
	</g>
	<g>
		<path fill="#FFFFFF" d="M63.896,20.35c0,0,0-0.019,0-0.053c0.009-0.034-0.018-0.088,0.021-0.147
			c0.062-0.132,0.195-0.307,0.398-0.412c0.396-0.253,0.998-0.378,1.595-0.395l0.438,0.034c0.149,0.024,0.298,0.041,0.437,0.072
			c0.276,0.061,0.522,0.17,0.723,0.289c0.204,0.105,0.335,0.282,0.394,0.403c0.039,0.056,0.018,0.126,0.024,0.157
			c0,0.034,0,0.052,0,0.052s-0.009-0.017-0.026-0.047c-0.022-0.028-0.028-0.074-0.079-0.11c-0.084-0.082-0.232-0.15-0.428-0.204
			c-0.188-0.068-0.432-0.081-0.681-0.121c-0.125-0.018-0.254-0.021-0.384-0.034l-0.417-0.001c-0.272-0.006-0.547,0.001-0.8,0.035
			c-0.249,0.038-0.493,0.052-0.681,0.12c-0.197,0.053-0.343,0.125-0.424,0.196c-0.052,0.033-0.062,0.095-0.083,0.12
			C63.904,20.334,63.896,20.35,63.896,20.35z"/>
	</g>
	<g>
		<path fill="#FFFFFF" d="M66.869,27.298c0.002-0.008,0.031,0.136,0.164,0.255c0.13,0.135,0.382,0.24,0.693,0.328
			c0.629,0.171,1.513,0.254,2.396,0.25c0.883,0.004,1.767-0.08,2.396-0.25c0.312-0.089,0.563-0.193,0.693-0.328
			c0.136-0.127,0.164-0.255,0.164-0.255c-0.012-0.004,0.053,0.122-0.035,0.339c-0.091,0.206-0.312,0.469-0.636,0.658
			c-0.319,0.198-0.726,0.357-1.17,0.463c-0.435,0.111-0.944,0.156-1.412,0.164c-0.966-0.002-1.938-0.232-2.581-0.628
			c-0.323-0.19-0.545-0.452-0.636-0.657c-0.049-0.1-0.056-0.206-0.046-0.254C66.865,27.327,66.869,27.298,66.869,27.298z"/>
	</g>
	<ellipse fill="#FFFFFF" cx="74.522" cy="20.085" rx="0.761" ry="0.455"/>
	<ellipse fill="#FFFFFF" cx="65.815" cy="20.085" rx="0.761" ry="0.455"/>
	
		<line fill="none" stroke="#FFFFFF" stroke-width="0.4482" stroke-miterlimit="10" x1="70.165" y1="19.633" x2="70.165" y2="23.365"/>
	<g>
		<path fill="#FFFFFF" d="M71.778,18.287c0,0,0.319-0.105,0.799-0.263c0.234-0.093,0.522-0.156,0.846-0.191
			c0.16-0.023,0.327-0.047,0.495-0.072c0.178-0.02,0.326-0.059,0.535-0.063c0.337-0.009,0.674-0.027,0.987-0.017
			c0.156,0.021,0.307,0.025,0.449,0.059c0.149,0.048,0.289,0.101,0.414,0.155c0.505,0.22,0.781,0.438,0.781,0.438L77.062,18.4
			c0,0-0.375,0.066-0.848,0.057c-0.119-0.003-0.244-0.013-0.375-0.03c-0.144,0.008-0.296-0.005-0.452-0.007
			c-0.313-0.034-0.644-0.099-0.975-0.154c-0.124-0.02-0.31-0.01-0.461-0.016c-0.16-0.003-0.317-0.006-0.47-0.009
			c-0.305-0.012-0.599-0.016-0.851,0.026c-0.502,0.053-0.837,0.089-0.837,0.089L71.778,18.287z"/>
	</g>
	<g>
		<path fill="#FFFFFF" d="M68.45,18.356c0,0-0.335-0.036-0.837-0.089c-0.251-0.042-0.545-0.038-0.85-0.026
			c-0.152,0.003-0.31,0.006-0.47,0.009c-0.151,0.006-0.337-0.003-0.461,0.016c-0.331,0.055-0.662,0.121-0.974,0.154
			c-0.157,0.002-0.31,0.015-0.452,0.007c-0.131,0.017-0.257,0.027-0.375,0.03c-0.473,0.009-0.848-0.057-0.848-0.057l-0.023-0.067
			c0,0,0.276-0.218,0.78-0.438c0.126-0.054,0.265-0.106,0.414-0.154c0.143-0.035,0.294-0.038,0.449-0.06
			c0.314-0.01,0.65,0.008,0.987,0.017c0.209,0.004,0.357,0.043,0.535,0.063c0.168,0.024,0.334,0.048,0.495,0.072
			c0.323,0.035,0.61,0.098,0.846,0.191c0.479,0.158,0.798,0.263,0.798,0.263L68.45,18.356z"/>
	</g>
	
		<line fill="none" stroke="#FFFFFF" stroke-width="0.4147" stroke-miterlimit="10" x1="73.762" y1="9.659" x2="73.762" y2="11.098"/>
	
		<line fill="none" stroke="#FFFFFF" stroke-width="0.4147" stroke-miterlimit="10" x1="74.787" y1="10.25" x2="74.787" y2="12.636"/>
	
		<line fill="none" stroke="#FFFFFF" stroke-width="0.4147" stroke-miterlimit="10" x1="76.066" y1="10.616" x2="76.066" y2="11.999"/>
	<path fill="none" stroke="#FFFFFF" stroke-width="0.6593" stroke-miterlimit="10" d="M57.913,20.779"/>
	<path fill="none" stroke="#FFFFFF" stroke-width="0.597" stroke-miterlimit="10" d="M40.901,23.702
		c-1.076-0.8-1.839-1.542-1.173-2.202c0.666-0.66,2.268,0.964,3.345,1.763l2.22,1.855"/>
	<path fill="none" stroke="#FFFFFF" stroke-width="0.6076" stroke-miterlimit="10" d="M44.395,30.592
		c-0.61-0.005-1.498-0.47-2.04-0.872l-1.744-1.296c-1.288-0.958-1.605-2.713-0.71-3.922l0,0c0.898-1.205,2.672-1.408,3.958-0.45
		l1.745,1.297c0.436,0.322,0.946,0.927,1.15,1.38"/>
	<path fill="none" stroke="#FFFFFF" stroke-width="0.6282" stroke-miterlimit="10" d="M66.577,35.075
		c-2.203,0.482-3.915,1.197-4.206,1.197c-0.824,0-2.169-0.788-2.169-0.788l-13.448-8.756l-2.359,3.863l10.765,11.022l2.752,2.815
		c0,0,1.201,1.26,1.201,2.609c1.25,0,22.215,0,22.215,0s0.004-1.666,0.004-5.581c0-0.697-0.589-5.521-7.952-6.604"/>
	<path fill="none" stroke="#FFFFFF" stroke-width="0.6282" stroke-miterlimit="10" d="M72.709,36.646c0,0-0.896,0.668-2.619,0.668
		s-3.097-0.668-3.097-0.668l-0.209-2.99h6.539L72.709,36.646z"/>
	
		<line fill="none" stroke="#FFFFFF" stroke-width="0.4194" stroke-miterlimit="10" x1="24.756" y1="15.832" x2="46.59" y2="15.832"/>
	<line fill="none" stroke="#FFFFFF" stroke-width="0.4194" stroke-miterlimit="10" x1="10.867" y1="21.56" x2="32.701" y2="21.56"/>
	
		<line fill="none" stroke="#FFFFFF" stroke-width="0.6944" stroke-miterlimit="10" x1="11.994" y1="15.832" x2="14.686" y2="15.832"/>
	
		<line fill="none" stroke="#FFFFFF" stroke-width="0.6944" stroke-miterlimit="10" x1="16.856" y1="15.832" x2="19.546" y2="15.832"/>
	
		<line fill="none" stroke="#FFFFFF" stroke-width="0.6944" stroke-miterlimit="10" x1="44.847" y1="21.063" x2="47.537" y2="21.063"/>
	
		<line fill="none" stroke="#FFFFFF" stroke-width="0.6944" stroke-miterlimit="10" x1="49.707" y1="21.063" x2="52.398" y2="21.063"/>
	
		<line fill="none" stroke="#FFFFFF" stroke-width="0.6944" stroke-miterlimit="10" x1="10.91" y1="28.862" x2="13.602" y2="28.862"/>
	
		<line fill="none" stroke="#FFFFFF" stroke-width="0.6944" stroke-miterlimit="10" x1="15.771" y1="28.862" x2="18.461" y2="28.862"/>
	
		<line fill="none" stroke="#FFFFFF" stroke-width="0.6282" stroke-miterlimit="10" x1="77.073" y1="41.704" x2="77.073" y2="47.285"/>
</g>
<line fill="none" stroke="#FFFFFF" stroke-width="1.7248" stroke-miterlimit="10" x1="0" y1="47.071" x2="85.13" y2="47.071"/>
</svg>
