<?xml version="1.0" encoding="utf-8"?>
<!-- Generator: Adobe Illustrator 16.0.0, SVG Export Plug-In . SVG Version: 6.00 Build 0)  -->
<!DOCTYPE svg PUBLIC "-//W3C//DTD SVG 1.1//EN" "http://www.w3.org/Graphics/SVG/1.1/DTD/svg11.dtd">
<svg version="1.1" id="Layer_1" xmlns="http://www.w3.org/2000/svg" xmlns:xlink="http://www.w3.org/1999/xlink" x="0px" y="0px"
	 width="500px" height="163px" viewBox="0 0 500 163" enable-background="new 0 0 500 163" xml:space="preserve">
<path fill="#0000FF" d="M291.109,42.291c-15.148-8.365-74.979-2.408-86.326,7.417c-11.349,9.826,1.915,43.112,13.623,50.007
	c13.593,8.011,48.534,10.292,66.492-5.069C299.035,81.034,306.258,50.658,291.109,42.291z M278.092,90.743
	c-15.071,12.193-46.334,10.777-55.423,3.903c-9.089-6.87-22.269-32.185-12.347-40.773c9.918-8.59,62.227-13.799,75.473-6.485
	C299.039,54.702,290.684,78.426,278.092,90.743z"/>
<path fill="#0000FF" d="M235.286,86.441c8.774-0.442,15.828-0.217,31.654-7.267c0,5.234-3.068,15.391-23.195,15.391
	C238.261,94.565,235.286,89.173,235.286,86.441z"/>
<path d="M233.357,94.646"/>
<path fill="#0000FF" d="M261.594,13.399c-0.074-0.174-0.118-0.357-0.146-0.542c-16.595,10.083-18.193,24.81-18.193,24.81
	s2.707-0.447,5.876-0.572c0-11.268,6.671-18.396,12.793-23.148C261.791,13.779,261.673,13.597,261.594,13.399z"/>
<path fill="#0000FF" d="M271.244,13.373c-3.158,1.212-6.32,0.637-7.062-1.291c-0.739-1.924,1.226-4.467,4.388-5.682
	c3.161-1.212,6.319-0.633,7.057,1.292C276.369,9.617,274.402,12.161,271.244,13.373z"/>
<path fill="#0000FF" d="M252.789,74.463c0.209,1.244-1.563,2.65-3.969,3.054s-4.541-0.345-4.746-1.593
	c-0.213-1.246,1.95-0.329,4.357-0.732C250.839,74.788,252.58,73.218,252.789,74.463z"/>
<path fill="#0000FF" d="M221.349,66.165c-0.253-1.336,3.932-3.332,9.368-4.366c5.436-1.035,10.064-0.72,10.318,0.614
	c0.252,1.334-4.406,0.842-9.841,1.877C225.757,65.325,221.604,67.499,221.349,66.165z"/>
<circle fill="none" stroke="#0000FF" stroke-width="3.4756" stroke-miterlimit="10" cx="231.173" cy="63.946" r="8.504"/>
<path fill="#0000FF" d="M274.853,60.607c0.052-1.358-4.387-2.7-9.915-2.909c-5.531-0.207-10.057,0.797-10.107,2.156
	c-0.053,1.357,4.48,0.168,10.011,0.376S274.801,61.963,274.853,60.607z"/>
<path fill="none" stroke="#0000FF" stroke-width="3.4756" stroke-miterlimit="10" d="M256.399,61.163
	c0.704,4.646,5.04,7.836,9.685,7.133c4.646-0.704,7.842-5.041,7.134-9.687c-0.704-4.643-5.04-7.836-9.685-7.132
	C258.886,52.182,255.695,56.519,256.399,61.163z"/>
<g>
	<path d="M60.654,130.363c0.84,0.34,1.66,0.82,2.46,1.44c0.2,0.18,0.39,0.27,0.57,0.27c0.4,0,0.66-0.6,0.78-1.8h0.69
		c-0.08,1.42-0.12,3.92-0.12,7.5h-0.69c-0.14-1.6-0.4-2.859-0.78-3.78c-0.38-0.919-1.041-1.69-1.98-2.31
		c-0.94-0.6-1.871-0.9-2.79-0.9c-2.081,0-3.54,1-4.38,3c-0.84,2-1.26,4.39-1.26,7.17c0,2.78,0.42,5.17,1.26,7.17
		c0.84,2,2.299,3,4.38,3c0.919,0,1.85-0.3,2.79-0.9c0.939-0.58,1.6-1.36,1.98-2.34c0.379-0.98,0.64-2.37,0.78-4.17h0.69
		c0,3.74,0.04,6.34,0.12,7.8h-0.69c-0.06-0.64-0.146-1.095-0.255-1.365c-0.11-0.27-0.266-0.405-0.465-0.405
		c-0.16,0-0.37,0.08-0.63,0.24c-0.9,0.64-1.76,1.125-2.58,1.455c-0.82,0.33-1.81,0.495-2.97,0.495c-2.26,0-4.24-0.43-5.94-1.29
		c-1.7-0.859-3.021-2.104-3.96-3.735c-0.94-1.63-1.41-3.575-1.41-5.835c0-2.2,0.48-4.15,1.44-5.85c0.96-1.7,2.3-3.02,4.02-3.96
		c1.72-0.94,3.68-1.41,5.88-1.41C58.794,129.853,59.814,130.023,60.654,130.363z"/>
	<path d="M81.023,137.458c1.34,1.29,2.01,3.385,2.01,6.285c0,2.9-0.67,4.99-2.01,6.27c-1.34,1.28-3.24,1.92-5.7,1.92
		s-4.36-0.64-5.7-1.92c-1.34-1.28-2.01-3.37-2.01-6.27c0-2.9,0.669-4.995,2.01-6.285c1.34-1.29,3.24-1.935,5.7-1.935
		S79.684,136.167,81.023,137.458z M73.793,138.013c-0.38,1.26-0.57,3.17-0.57,5.73c0,2.561,0.19,4.465,0.57,5.715
		c0.38,1.25,0.89,1.875,1.53,1.875c0.64,0,1.15-0.624,1.53-1.875c0.38-1.25,0.57-3.154,0.57-5.715c0-2.56-0.19-4.47-0.57-5.73
		s-0.89-1.89-1.53-1.89C74.683,136.123,74.173,136.753,73.793,138.013z"/>
	<path d="M109.809,150.417c0.25,0.311,0.685,0.465,1.305,0.465v0.63c-2.16-0.079-3.56-0.12-4.2-0.12c-0.641,0-1.96,0.041-3.96,0.12
		v-0.63c0.399,0,0.68-0.15,0.84-0.45c0.16-0.3,0.24-0.87,0.24-1.71v-9.75c0-0.64-0.115-1.115-0.345-1.425
		c-0.23-0.31-0.605-0.465-1.125-0.465c-0.521,0-0.995,0.221-1.425,0.66c-0.43,0.44-0.695,0.96-0.795,1.56
		c0.04,0.48,0.06,0.91,0.06,1.29v8.13c0,0.84,0.1,1.41,0.3,1.71c0.199,0.3,0.56,0.45,1.08,0.45v0.63c-2-0.079-3.3-0.12-3.9-0.12
		c-0.64,0-1.96,0.041-3.96,0.12v-0.63c0.4,0,0.68-0.155,0.84-0.465c0.16-0.31,0.24-0.875,0.24-1.695v-9.75
		c0-0.64-0.09-1.115-0.27-1.425s-0.48-0.465-0.9-0.465c-0.581,0-1.085,0.206-1.515,0.615c-0.43,0.41-0.645,0.925-0.645,1.545v9.48
		c0,0.84,0.08,1.41,0.24,1.71c0.16,0.3,0.439,0.45,0.84,0.45v0.63c-1.84-0.079-3.06-0.12-3.66-0.12c-0.68,0-2.18,0.041-4.5,0.12
		v-0.63c0.62,0,1.055-0.155,1.305-0.465c0.25-0.31,0.375-0.875,0.375-1.695v-9.51c0-0.92-0.125-1.59-0.375-2.01
		c-0.25-0.42-0.686-0.63-1.305-0.63v-0.63c0.64,0.06,1.26,0.09,1.86,0.09c2.08,0,3.82-0.14,5.22-0.42v2.16
		c0.84-1.5,2.33-2.25,4.47-2.25c1.6,0,2.73,0.4,3.39,1.2c0.3,0.36,0.52,0.83,0.66,1.41c0.5-0.96,1.165-1.635,1.995-2.025
		c0.83-0.39,1.825-0.585,2.985-0.585c1.6,0,2.73,0.4,3.39,1.2c0.3,0.36,0.52,0.845,0.66,1.455c0.14,0.61,0.21,1.415,0.21,2.415v8.13
		C109.434,149.543,109.558,150.108,109.809,150.417z"/>
	<path d="M137.288,150.417c0.25,0.311,0.685,0.465,1.305,0.465v0.63c-2.16-0.079-3.56-0.12-4.2-0.12c-0.641,0-1.96,0.041-3.96,0.12
		v-0.63c0.399,0,0.68-0.15,0.84-0.45c0.16-0.3,0.24-0.87,0.24-1.71v-9.75c0-0.64-0.115-1.115-0.345-1.425
		c-0.23-0.31-0.605-0.465-1.125-0.465c-0.521,0-0.995,0.221-1.425,0.66c-0.43,0.44-0.695,0.96-0.795,1.56
		c0.04,0.48,0.06,0.91,0.06,1.29v8.13c0,0.84,0.1,1.41,0.3,1.71c0.199,0.3,0.56,0.45,1.08,0.45v0.63c-2-0.079-3.3-0.12-3.9-0.12
		c-0.64,0-1.96,0.041-3.96,0.12v-0.63c0.4,0,0.68-0.155,0.84-0.465c0.16-0.31,0.24-0.875,0.24-1.695v-9.75
		c0-0.64-0.09-1.115-0.27-1.425s-0.48-0.465-0.9-0.465c-0.581,0-1.085,0.206-1.515,0.615c-0.43,0.41-0.645,0.925-0.645,1.545v9.48
		c0,0.84,0.08,1.41,0.24,1.71c0.16,0.3,0.439,0.45,0.84,0.45v0.63c-1.84-0.079-3.06-0.12-3.66-0.12c-0.68,0-2.18,0.041-4.5,0.12
		v-0.63c0.62,0,1.055-0.155,1.305-0.465c0.25-0.31,0.375-0.875,0.375-1.695v-9.51c0-0.92-0.125-1.59-0.375-2.01
		c-0.25-0.42-0.686-0.63-1.305-0.63v-0.63c0.64,0.06,1.26,0.09,1.86,0.09c2.08,0,3.82-0.14,5.22-0.42v2.16
		c0.84-1.5,2.33-2.25,4.47-2.25c1.6,0,2.73,0.4,3.39,1.2c0.3,0.36,0.52,0.83,0.66,1.41c0.5-0.96,1.165-1.635,1.995-2.025
		c0.83-0.39,1.825-0.585,2.985-0.585c1.6,0,2.73,0.4,3.39,1.2c0.3,0.36,0.52,0.845,0.66,1.455c0.14,0.61,0.21,1.415,0.21,2.415v8.13
		C136.913,149.543,137.038,150.108,137.288,150.417z"/>
	<path d="M155.362,148.243c0,0.92,0.125,1.59,0.375,2.01c0.25,0.42,0.685,0.63,1.305,0.63v0.63c-0.62-0.06-1.24-0.09-1.86-0.09
		c-2.08,0-3.82,0.14-5.22,0.42v-2.16c-0.9,1.5-2.49,2.25-4.77,2.25c-1.6,0-2.73-0.4-3.39-1.2c-0.3-0.36-0.52-0.845-0.66-1.455
		c-0.14-0.61-0.21-1.415-0.21-2.415v-7.65c0-0.92-0.125-1.59-0.375-2.01s-0.685-0.63-1.305-0.63v-0.63
		c0.62,0.06,1.24,0.09,1.86,0.09c2.08,0,3.82-0.14,5.22-0.42v12.87c0,0.64,0.115,1.115,0.345,1.425s0.605,0.465,1.125,0.465
		c0.58,0,1.085-0.205,1.515-0.615c0.43-0.41,0.645-0.925,0.645-1.545v-9c0-0.92-0.125-1.59-0.375-2.01
		c-0.25-0.42-0.686-0.63-1.305-0.63v-0.63c0.62,0.06,1.24,0.09,1.86,0.09c2.08,0,3.82-0.14,5.22-0.42V148.243z"/>
	<path d="M173.452,136.723c0.3,0.36,0.52,0.845,0.66,1.455c0.14,0.61,0.21,1.415,0.21,2.415v8.13c0,0.82,0.125,1.385,0.375,1.695
		c0.25,0.311,0.685,0.465,1.305,0.465v0.63c-2.16-0.079-3.56-0.12-4.2-0.12c-0.68,0-2.1,0.041-4.26,0.12v-0.63
		c0.52,0,0.88-0.155,1.08-0.465c0.2-0.31,0.3-0.875,0.3-1.695v-9.75c0-0.64-0.115-1.115-0.345-1.425
		c-0.23-0.31-0.605-0.465-1.125-0.465c-0.581,0-1.085,0.206-1.515,0.615c-0.43,0.41-0.645,0.925-0.645,1.545v9.48
		c0,0.82,0.1,1.385,0.3,1.695c0.2,0.311,0.56,0.465,1.08,0.465v0.63c-2-0.079-3.32-0.12-3.96-0.12c-0.68,0-2.18,0.041-4.5,0.12
		v-0.63c0.62,0,1.055-0.155,1.305-0.465c0.25-0.31,0.375-0.875,0.375-1.695v-9.51c0-0.92-0.125-1.59-0.375-2.01
		c-0.25-0.42-0.686-0.63-1.305-0.63v-0.63c0.64,0.06,1.26,0.09,1.86,0.09c2.08,0,3.82-0.14,5.22-0.42v2.16
		c0.9-1.5,2.49-2.25,4.77-2.25C171.662,135.522,172.792,135.923,173.452,136.723z"/>
	<path d="M184.042,148.723c0,0.82,0.125,1.385,0.375,1.695c0.25,0.311,0.685,0.465,1.305,0.465v0.63
		c-2.16-0.079-3.581-0.12-4.26-0.12c-0.68,0-2.18,0.041-4.5,0.12v-0.63c0.62,0,1.055-0.155,1.305-0.465
		c0.25-0.31,0.375-0.875,0.375-1.695v-9.51c0-0.92-0.125-1.59-0.375-2.01c-0.25-0.42-0.686-0.63-1.305-0.63v-0.63
		c0.64,0.06,1.26,0.09,1.86,0.09c2.08,0,3.82-0.14,5.22-0.42V148.723z M183.577,128.713c0.57,0.44,0.855,1.08,0.855,1.92
		c0,0.84-0.285,1.48-0.855,1.92c-0.57,0.44-1.375,0.66-2.415,0.66c-1.061,0-1.871-0.22-2.43-0.66c-0.56-0.44-0.84-1.08-0.84-1.92
		c0-0.84,0.28-1.48,0.84-1.92c0.56-0.44,1.37-0.66,2.43-0.66C182.202,128.053,183.007,128.273,183.577,128.713z"/>
	<path d="M193.792,135.943h2.94v0.6h-2.94v12.45c0,0.4,0.07,0.68,0.21,0.84c0.14,0.161,0.37,0.24,0.69,0.24
		c0.24,0,0.51-0.07,0.81-0.21c0.3-0.14,0.57-0.36,0.81-0.66l0.45,0.36c-0.92,1.58-2.34,2.37-4.26,2.37c-1.38,0-2.41-0.341-3.09-1.02
		c-0.42-0.42-0.695-0.94-0.825-1.56c-0.13-0.62-0.195-1.49-0.195-2.61v-10.2h-2.28v-0.6h2.28v-3.54c1.08,0,2.055-0.105,2.925-0.315
		s1.695-0.545,2.475-1.005V135.943z"/>
	<path d="M212.481,135.943v0.63c-0.42,0.14-0.805,0.43-1.155,0.87c-0.351,0.44-0.675,1.12-0.975,2.04l-3.75,11.16l-1.26,3.63
		c-0.36,1.04-0.8,1.76-1.32,2.16c-0.62,0.479-1.55,0.72-2.79,0.72c-1,0-1.93-0.234-2.79-0.705c-0.86-0.47-1.29-1.175-1.29-2.115
		c0-0.699,0.27-1.26,0.81-1.68s1.25-0.63,2.13-0.63c0.84,0,1.5,0.19,1.98,0.57s0.72,0.93,0.72,1.649c0,0.48-0.165,0.936-0.495,1.365
		s-0.815,0.745-1.455,0.945c0.2,0.04,0.54,0.061,1.02,0.061c1.38,0,2.33-0.801,2.85-2.4l0.15-0.51l-6.99-15.45
		c-0.3-0.68-0.595-1.13-0.885-1.35c-0.29-0.22-0.575-0.33-0.855-0.33v-0.63c1.6,0.12,3.23,0.18,4.89,0.18c1.3,0,2.75-0.06,4.35-0.18
		v0.63c-0.581,0-1.025,0.04-1.335,0.12c-0.311,0.08-0.465,0.26-0.465,0.54c0,0.16,0.04,0.32,0.12,0.48l3.69,8.79l1.26-3.84
		c0.379-1.16,0.57-2.18,0.57-3.06c0-0.939-0.2-1.669-0.6-2.19c-0.4-0.52-0.93-0.8-1.59-0.84v-0.63c0.74,0.08,1.79,0.12,3.15,0.12
		C211.312,136.063,212.081,136.023,212.481,135.943z"/>
	<path d="M230.226,130.167c0.71,0.21,1.405,0.505,2.085,0.885c0.22,0.12,0.415,0.22,0.585,0.3c0.17,0.08,0.315,0.12,0.435,0.12
		c0.18,0,0.32-0.105,0.42-0.315s0.18-0.545,0.24-1.005h0.69c-0.101,1.44-0.15,3.88-0.15,7.32h-0.69c-0.081-1.14-0.34-2.23-0.78-3.27
		c-0.44-1.04-1.04-1.89-1.8-2.55c-0.76-0.66-1.64-0.99-2.64-0.99c-0.92,0-1.66,0.245-2.22,0.735c-0.56,0.491-0.84,1.175-0.84,2.055
		c0,0.68,0.15,1.271,0.45,1.77c0.3,0.5,0.74,0.985,1.32,1.455c0.58,0.47,1.53,1.165,2.85,2.085c0.12,0.06,0.235,0.13,0.345,0.21
		c0.11,0.08,0.215,0.16,0.315,0.24c1.1,0.76,1.98,1.435,2.64,2.025c0.66,0.59,1.195,1.275,1.605,2.055
		c0.41,0.78,0.615,1.68,0.615,2.7c0,1.3-0.365,2.396-1.095,3.285c-0.73,0.89-1.715,1.555-2.955,1.995
		c-1.24,0.44-2.61,0.66-4.11,0.66c-1.22,0-2.235-0.101-3.045-0.3s-1.565-0.47-2.265-0.81c-0.44-0.28-0.78-0.42-1.02-0.42
		c-0.18,0-0.32,0.105-0.42,0.315s-0.18,0.545-0.24,1.005h-0.69c0.08-1.36,0.12-4.26,0.12-8.7h0.69c0.14,2.38,0.64,4.311,1.5,5.79
		c0.86,1.48,2.18,2.221,3.96,2.221c1.1,0,1.975-0.26,2.625-0.78c0.649-0.52,0.975-1.24,0.975-2.16c0-1.14-0.355-2.115-1.065-2.925
		c-0.71-0.81-1.815-1.714-3.315-2.715c-1.2-0.8-2.16-1.5-2.88-2.1c-0.72-0.6-1.31-1.294-1.77-2.085
		c-0.46-0.79-0.69-1.705-0.69-2.745c0-1.26,0.34-2.314,1.02-3.165c0.68-0.85,1.584-1.48,2.715-1.89
		c1.13-0.41,2.365-0.615,3.705-0.615C228.591,129.853,229.516,129.958,230.226,130.167z"/>
	<path d="M247.656,135.778c0.69,0.17,1.255,0.385,1.695,0.645c0.56,0.32,1,0.75,1.32,1.29c0.319,0.54,0.479,1.15,0.479,1.83
		c0,0.84-0.27,1.535-0.81,2.085s-1.23,0.825-2.07,0.825c-0.86,0-1.535-0.245-2.025-0.735c-0.49-0.49-0.735-1.145-0.735-1.965
		c0-0.72,0.235-1.355,0.705-1.905c0.47-0.55,1.055-0.915,1.755-1.095c-0.3-0.24-0.7-0.36-1.2-0.36c-1.28,0-2.18,0.686-2.7,2.055
		c-0.521,1.37-0.78,2.995-0.78,4.875c0,1.92,0.36,3.29,1.08,4.11c0.72,0.82,1.61,1.23,2.67,1.23c1.46,0,2.67-0.67,3.63-2.01
		l0.51,0.18c-0.44,1.4-1.185,2.6-2.235,3.6c-1.05,1.001-2.396,1.5-4.035,1.5c-2.18,0-3.93-0.649-5.25-1.95
		c-1.32-1.3-1.98-3.38-1.98-6.24c0-2.74,0.705-4.795,2.115-6.165c1.41-1.37,3.274-2.055,5.595-2.055
		C246.21,135.522,246.966,135.608,247.656,135.778z"/>
	<path d="M259.58,148.723c0,0.82,0.125,1.385,0.375,1.695c0.25,0.311,0.686,0.465,1.306,0.465v0.63
		c-2.16-0.079-3.581-0.12-4.261-0.12s-2.18,0.041-4.5,0.12v-0.63c0.62,0,1.055-0.155,1.306-0.465c0.25-0.31,0.375-0.875,0.375-1.695
		v-9.51c0-0.92-0.125-1.59-0.375-2.01c-0.251-0.42-0.686-0.63-1.306-0.63v-0.63c0.641,0.06,1.261,0.09,1.861,0.09
		c2.079,0,3.819-0.14,5.219-0.42V148.723z M259.115,128.713c0.57,0.44,0.855,1.08,0.855,1.92c0,0.84-0.285,1.48-0.855,1.92
		s-1.375,0.66-2.414,0.66c-1.061,0-1.871-0.22-2.431-0.66s-0.84-1.08-0.84-1.92c0-0.84,0.28-1.48,0.84-1.92s1.37-0.66,2.431-0.66
		C257.74,128.053,258.545,128.273,259.115,128.713z"/>
	<path d="M275.391,146.653l0.51,0.18c-0.44,1.4-1.186,2.6-2.235,3.6c-1.05,1.001-2.396,1.5-4.035,1.5c-2.101,0-3.78-0.649-5.04-1.95
		s-1.89-3.38-1.89-6.24c0-2.74,0.704-4.795,2.114-6.165c1.41-1.37,3.275-2.055,5.596-2.055c3.779,0,5.67,2.24,5.67,6.72h-7.74
		c-0.02,0.24-0.029,0.6-0.029,1.08c0,1.92,0.334,3.29,1.004,4.11c0.67,0.82,1.485,1.23,2.445,1.23
		C273.22,148.663,274.43,147.993,275.391,146.653z M268.221,141.673h3.479c0.02-1.6-0.095-2.91-0.345-3.93
		c-0.251-1.02-0.636-1.53-1.155-1.53C269.08,136.213,268.42,138.033,268.221,141.673z"/>
	<path d="M292.43,136.723c0.301,0.36,0.52,0.845,0.66,1.455c0.141,0.61,0.211,1.415,0.211,2.415v8.13
		c0,0.82,0.124,1.385,0.375,1.695c0.249,0.311,0.684,0.465,1.305,0.465v0.63c-2.16-0.079-3.561-0.12-4.2-0.12
		c-0.681,0-2.101,0.041-4.261,0.12v-0.63c0.521,0,0.881-0.155,1.08-0.465c0.2-0.31,0.301-0.875,0.301-1.695v-9.75
		c0-0.64-0.115-1.115-0.346-1.425s-0.605-0.465-1.125-0.465c-0.58,0-1.085,0.206-1.515,0.615c-0.431,0.41-0.646,0.925-0.646,1.545
		v9.48c0,0.82,0.101,1.385,0.301,1.695c0.199,0.311,0.56,0.465,1.08,0.465v0.63c-2-0.079-3.32-0.12-3.961-0.12
		c-0.68,0-2.18,0.041-4.5,0.12v-0.63c0.62,0,1.055-0.155,1.306-0.465c0.25-0.31,0.375-0.875,0.375-1.695v-9.51
		c0-0.92-0.125-1.59-0.375-2.01c-0.251-0.42-0.686-0.63-1.306-0.63v-0.63c0.641,0.06,1.261,0.09,1.861,0.09
		c2.079,0,3.819-0.14,5.219-0.42v2.16c0.9-1.5,2.49-2.25,4.771-2.25C290.641,135.522,291.77,135.923,292.43,136.723z"/>
	<path d="M306.186,135.778c0.689,0.17,1.254,0.385,1.694,0.645c0.56,0.32,1,0.75,1.32,1.29c0.319,0.54,0.479,1.15,0.479,1.83
		c0,0.84-0.27,1.535-0.81,2.085s-1.229,0.825-2.069,0.825c-0.861,0-1.535-0.245-2.025-0.735c-0.49-0.49-0.735-1.145-0.735-1.965
		c0-0.72,0.235-1.355,0.705-1.905c0.47-0.55,1.055-0.915,1.755-1.095c-0.3-0.24-0.7-0.36-1.199-0.36
		c-1.281,0-2.181,0.686-2.701,2.055c-0.52,1.37-0.779,2.995-0.779,4.875c0,1.92,0.359,3.29,1.08,4.11
		c0.72,0.82,1.609,1.23,2.67,1.23c1.459,0,2.67-0.67,3.63-2.01l0.51,0.18c-0.44,1.4-1.185,2.6-2.235,3.6
		c-1.049,1.001-2.395,1.5-4.035,1.5c-2.18,0-3.93-0.649-5.25-1.95c-1.319-1.3-1.979-3.38-1.979-6.24c0-2.74,0.705-4.795,2.115-6.165
		c1.409-1.37,3.274-2.055,5.595-2.055C304.74,135.522,305.495,135.608,306.186,135.778z"/>
	<path d="M324.02,146.653l0.51,0.18c-0.439,1.4-1.185,2.6-2.234,3.6c-1.05,1.001-2.396,1.5-4.035,1.5c-2.1,0-3.779-0.649-5.04-1.95
		c-1.26-1.3-1.89-3.38-1.89-6.24c0-2.74,0.705-4.795,2.115-6.165c1.41-1.37,3.274-2.055,5.595-2.055c3.78,0,5.67,2.24,5.67,6.72
		h-7.74c-0.021,0.24-0.03,0.6-0.03,1.08c0,1.92,0.335,3.29,1.006,4.11c0.67,0.82,1.484,1.23,2.445,1.23
		C321.85,148.663,323.061,147.993,324.02,146.653z M316.85,141.673h3.48c0.02-1.6-0.096-2.91-0.346-3.93s-0.635-1.53-1.154-1.53
		C317.709,136.213,317.05,138.033,316.85,141.673z"/>
	<path d="M358.895,131.113c-0.291,0.12-0.485,0.35-0.586,0.69c-0.1,0.34-0.149,0.89-0.149,1.65v14.88c0,0.76,0.055,1.311,0.165,1.65
		c0.109,0.34,0.305,0.57,0.585,0.69c0.28,0.12,0.739,0.2,1.38,0.24v0.6c-1.221-0.06-2.99-0.09-5.311-0.09
		c-2.42,0-4.199,0.03-5.34,0.09v-0.6c0.721-0.04,1.246-0.12,1.576-0.24c0.33-0.12,0.555-0.35,0.674-0.69
		c0.121-0.34,0.181-0.89,0.181-1.65v-15.33l-7.229,18.479h-0.48l-8.46-19.26v13.41c0,1.48,0.06,2.545,0.18,3.195
		c0.12,0.65,0.385,1.125,0.795,1.425c0.409,0.3,1.095,0.52,2.056,0.66v0.6c-0.82-0.06-1.94-0.09-3.36-0.09
		c-1.061,0-1.89,0.03-2.49,0.09v-0.6c0.62-0.14,1.08-0.355,1.38-0.645c0.301-0.29,0.5-0.735,0.6-1.335c0.101-0.6,0.15-1.5,0.15-2.7
		v-12.78c0-0.76-0.055-1.31-0.164-1.65c-0.111-0.34-0.306-0.57-0.586-0.69s-0.74-0.2-1.38-0.24v-0.6c0.601,0.06,1.43,0.09,2.49,0.09
		c2.399,0,4.47-0.03,6.21-0.09l5.67,12.75l4.92-12.66h2.609c2.32,0,4.09-0.03,5.311-0.09v0.6
		C359.648,130.913,359.184,130.993,358.895,131.113z"/>
	<path d="M377.18,148.243c0,0.92,0.125,1.59,0.375,2.01c0.25,0.42,0.686,0.63,1.305,0.63v0.63c-0.619-0.06-1.24-0.09-1.859-0.09
		c-2.08,0-3.82,0.14-5.221,0.42v-2.16c-0.899,1.5-2.49,2.25-4.77,2.25c-1.6,0-2.73-0.4-3.391-1.2
		c-0.299-0.36-0.52-0.845-0.659-1.455c-0.14-0.61-0.21-1.415-0.21-2.415v-7.65c0-0.92-0.125-1.59-0.375-2.01s-0.686-0.63-1.305-0.63
		v-0.63c0.619,0.06,1.239,0.09,1.859,0.09c2.08,0,3.82-0.14,5.221-0.42v12.87c0,0.64,0.114,1.115,0.344,1.425
		c0.23,0.31,0.605,0.465,1.125,0.465c0.58,0,1.086-0.205,1.516-0.615c0.43-0.41,0.645-0.925,0.645-1.545v-9
		c0-0.92-0.125-1.59-0.375-2.01s-0.686-0.63-1.305-0.63v-0.63c0.619,0.06,1.24,0.09,1.86,0.09c2.079,0,3.819-0.14,5.22-0.42V148.243
		z"/>
	<path d="M388.534,135.778c0.69,0.17,1.216,0.355,1.575,0.555c0.22,0.12,0.4,0.18,0.54,0.18c0.42,0,0.67-0.32,0.75-0.96H392
		c-0.08,1.04-0.121,2.84-0.121,5.4h-0.6c-0.16-1.32-0.535-2.435-1.125-3.345s-1.445-1.365-2.564-1.365c-0.5,0-0.92,0.15-1.26,0.45
		c-0.341,0.3-0.511,0.71-0.511,1.23c0,0.66,0.22,1.245,0.66,1.755c0.439,0.51,1.13,1.135,2.069,1.875
		c0.041,0.02,0.33,0.25,0.871,0.69c1.119,0.92,1.939,1.735,2.459,2.445c0.521,0.71,0.78,1.585,0.78,2.625
		c0,0.88-0.27,1.675-0.81,2.385s-1.275,1.26-2.205,1.65c-0.93,0.391-1.945,0.585-3.045,0.585c-1.26,0-2.291-0.25-3.09-0.75
		c-0.341-0.18-0.621-0.31-0.84-0.39c-0.221-0.08-0.44-0.12-0.66-0.12c-0.381,0-0.66,0.351-0.84,1.05h-0.601
		c0.079-1.14,0.12-3.14,0.12-6h0.6c0.18,1.64,0.62,2.96,1.32,3.96c0.699,1,1.58,1.5,2.641,1.5c0.499,0,0.914-0.14,1.244-0.42
		c0.33-0.28,0.495-0.69,0.495-1.23c0-0.56-0.115-1.06-0.345-1.5c-0.23-0.44-0.51-0.835-0.84-1.185
		c-0.33-0.35-0.865-0.855-1.605-1.515c-0.84-0.78-1.48-1.399-1.92-1.86c-0.439-0.46-0.814-0.995-1.125-1.605
		c-0.311-0.61-0.465-1.285-0.465-2.025c0-0.86,0.26-1.62,0.779-2.28c0.521-0.66,1.211-1.165,2.07-1.515
		c0.859-0.35,1.79-0.525,2.791-0.525C387.109,135.522,387.844,135.608,388.534,135.778z"/>
	<path d="M407.18,146.653l0.51,0.18c-0.44,1.4-1.186,2.6-2.235,3.6c-1.05,1.001-2.396,1.5-4.035,1.5c-2.101,0-3.78-0.649-5.04-1.95
		s-1.89-3.38-1.89-6.24c0-2.74,0.704-4.795,2.114-6.165c1.41-1.37,3.275-2.055,5.596-2.055c3.779,0,5.67,2.24,5.67,6.72h-7.74
		c-0.02,0.24-0.029,0.6-0.029,1.08c0,1.92,0.334,3.29,1.004,4.11c0.67,0.82,1.485,1.23,2.445,1.23
		C405.009,148.663,406.219,147.993,407.18,146.653z M400.01,141.673h3.479c0.02-1.6-0.095-2.91-0.345-3.93
		c-0.251-1.02-0.636-1.53-1.155-1.53C400.869,136.213,400.209,138.033,400.01,141.673z"/>
	<path d="M425.089,148.243c0,0.92,0.124,1.59,0.375,2.01c0.25,0.42,0.685,0.63,1.306,0.63v0.63c-0.621-0.06-1.24-0.09-1.861-0.09
		c-2.08,0-3.82,0.14-5.219,0.42v-2.16c-0.9,1.5-2.49,2.25-4.771,2.25c-1.601,0-2.729-0.4-3.39-1.2
		c-0.301-0.36-0.521-0.845-0.66-1.455c-0.141-0.61-0.211-1.415-0.211-2.415v-7.65c0-0.92-0.125-1.59-0.375-2.01
		s-0.685-0.63-1.305-0.63v-0.63c0.62,0.06,1.24,0.09,1.86,0.09c2.08,0,3.819-0.14,5.22-0.42v12.87c0,0.64,0.115,1.115,0.346,1.425
		c0.229,0.31,0.604,0.465,1.125,0.465c0.58,0,1.084-0.205,1.515-0.615c0.43-0.41,0.646-0.925,0.646-1.545v-9
		c0-0.92-0.125-1.59-0.375-2.01c-0.251-0.42-0.686-0.63-1.306-0.63v-0.63c0.62,0.06,1.239,0.09,1.86,0.09
		c2.08,0,3.82-0.14,5.22-0.42V148.243z"/>
	<path d="M453.154,150.417c0.249,0.311,0.684,0.465,1.305,0.465v0.63c-2.16-0.079-3.561-0.12-4.2-0.12
		c-0.641,0-1.96,0.041-3.96,0.12v-0.63c0.399,0,0.68-0.15,0.84-0.45c0.16-0.3,0.24-0.87,0.24-1.71v-9.75
		c0-0.64-0.115-1.115-0.346-1.425s-0.605-0.465-1.125-0.465s-0.994,0.221-1.425,0.66c-0.431,0.44-0.694,0.96-0.795,1.56
		c0.04,0.48,0.06,0.91,0.06,1.29v8.13c0,0.84,0.101,1.41,0.301,1.71c0.199,0.3,0.56,0.45,1.08,0.45v0.63
		c-2-0.079-3.301-0.12-3.9-0.12c-0.641,0-1.961,0.041-3.96,0.12v-0.63c0.399,0,0.68-0.155,0.84-0.465
		c0.16-0.31,0.24-0.875,0.24-1.695v-9.75c0-0.64-0.09-1.115-0.271-1.425c-0.18-0.31-0.479-0.465-0.899-0.465
		c-0.581,0-1.085,0.206-1.515,0.615c-0.431,0.41-0.646,0.925-0.646,1.545v9.48c0,0.84,0.079,1.41,0.24,1.71
		c0.159,0.3,0.439,0.45,0.84,0.45v0.63c-1.841-0.079-3.06-0.12-3.66-0.12c-0.681,0-2.181,0.041-4.5,0.12v-0.63
		c0.62,0,1.055-0.155,1.306-0.465c0.25-0.31,0.375-0.875,0.375-1.695v-9.51c0-0.92-0.125-1.59-0.375-2.01
		c-0.251-0.42-0.686-0.63-1.306-0.63v-0.63c0.64,0.06,1.261,0.09,1.86,0.09c2.08,0,3.82-0.14,5.22-0.42v2.16
		c0.84-1.5,2.329-2.25,4.47-2.25c1.6,0,2.73,0.4,3.391,1.2c0.3,0.36,0.52,0.83,0.66,1.41c0.499-0.96,1.164-1.635,1.994-2.025
		c0.83-0.39,1.825-0.585,2.985-0.585c1.601,0,2.729,0.4,3.39,1.2c0.301,0.36,0.52,0.845,0.66,1.455
		c0.141,0.61,0.211,1.415,0.211,2.415v8.13C452.779,149.543,452.903,150.108,453.154,150.417z"/>
</g>
<text transform="matrix(1 0 0 1 45.1738 195.5127)" font-family="'PlayfairDisplay-Black'" font-size="30">Community Science Museum</text>
</svg>
