<?xml version="1.0" encoding="utf-8"?>
<!-- Generator: Adobe Illustrator 16.0.0, SVG Export Plug-In . SVG Version: 6.00 Build 0)  -->
<!DOCTYPE svg PUBLIC "-//W3C//DTD SVG 1.1//EN" "http://www.w3.org/Graphics/SVG/1.1/DTD/svg11.dtd">
<svg version="1.1" id="Layer_1" xmlns="http://www.w3.org/2000/svg" xmlns:xlink="http://www.w3.org/1999/xlink" x="0px" y="0px"
	 width="100px" height="100px" viewBox="0 0 100 100" enable-background="new 0 0 100 100" xml:space="preserve">
<path fill="#0000FF" d="M91.053,36.232c-15.148-8.365-74.98-2.408-86.326,7.417C-6.622,53.474,6.642,86.761,18.35,93.656
	c13.593,8.011,48.534,10.292,66.492-5.069C98.979,74.975,106.201,44.599,91.053,36.232z M78.035,84.684
	c-15.071,12.193-46.334,10.777-55.423,3.903c-9.089-6.87-22.269-32.185-12.347-40.773c9.918-8.59,62.227-13.799,75.473-6.485
	C98.982,48.643,90.627,72.367,78.035,84.684z"/>
<path fill="#0000FF" d="M35.229,80.382c8.774-0.443,15.827-0.217,31.654-7.267c0,5.234-3.069,15.391-23.196,15.391
	C38.204,88.506,35.229,83.114,35.229,80.382z"/>
<path d="M33.301,88.587"/>
<path fill="#0000FF" d="M61.537,7.34c-0.074-0.174-0.118-0.357-0.147-0.542c-16.594,10.083-18.193,24.81-18.193,24.81
	s2.707-0.447,5.876-0.572c0-11.268,6.671-18.396,12.793-23.148C61.734,7.72,61.616,7.538,61.537,7.34z"/>
<path fill="#0000FF" d="M71.187,7.314c-3.157,1.212-6.32,0.637-7.061-1.291c-0.74-1.924,1.225-4.467,4.388-5.682
	c3.161-1.212,6.319-0.633,7.056,1.292C76.312,3.558,74.345,6.102,71.187,7.314z"/>
<path fill="#0000FF" d="M52.733,68.405c0.209,1.244-1.563,2.649-3.969,3.053c-2.407,0.403-4.541-0.345-4.747-1.593
	c-0.213-1.246,1.951-0.329,4.358-0.732C50.782,68.729,52.524,67.159,52.733,68.405z"/>
<path fill="#0000FF" d="M21.292,60.105c-0.253-1.335,3.932-3.331,9.368-4.366c5.436-1.035,10.065-0.72,10.318,0.615
	c0.253,1.333-4.406,0.842-9.841,1.876C25.7,59.266,21.548,61.44,21.292,60.105z"/>
<circle fill="none" stroke="#0000FF" stroke-width="3.4756" stroke-miterlimit="10" cx="31.116" cy="57.887" r="8.504"/>
<path fill="#0000FF" d="M74.796,54.548c0.052-1.358-4.387-2.701-9.915-2.91c-5.531-0.207-10.057,0.798-10.108,2.157
	c-0.052,1.357,4.481,0.168,10.011,0.376C70.314,54.379,74.744,55.905,74.796,54.548z"/>
<path fill="none" stroke="#0000FF" stroke-width="3.4756" stroke-miterlimit="10" d="M56.343,55.104
	c0.704,4.646,5.04,7.836,9.684,7.132c4.646-0.704,7.842-5.04,7.134-9.686c-0.704-4.643-5.04-7.836-9.684-7.132
	C58.829,46.123,55.638,50.46,56.343,55.104z"/>
</svg>
