<?xml version="1.0" encoding="utf-8"?>
<!-- Generator: Adobe Illustrator 16.0.0, SVG Export Plug-In . SVG Version: 6.00 Build 0)  -->
<!DOCTYPE svg PUBLIC "-//W3C//DTD SVG 1.1//EN" "http://www.w3.org/Graphics/SVG/1.1/DTD/svg11.dtd">
<svg version="1.1" id="Layer_1" xmlns="http://www.w3.org/2000/svg" xmlns:xlink="http://www.w3.org/1999/xlink" x="0px" y="0px"
	 width="100px" height="100px" viewBox="0 0 100 100" enable-background="new 0 0 100 100" xml:space="preserve">
<path fill="#FFFFFF" d="M87.912,37.27c-13.991-7.726-69.251-2.224-79.73,6.85C-2.3,53.195,9.95,83.938,20.764,90.307
	c12.554,7.398,44.826,9.506,61.412-4.682C95.232,73.053,101.903,44.998,87.912,37.27z M75.889,82.02
	c-13.92,11.262-42.794,9.954-51.189,3.605c-8.394-6.346-20.567-29.727-11.403-37.658c9.16-7.934,57.473-12.745,69.708-5.99
	C95.236,48.732,87.519,70.645,75.889,82.02z"/>
<path fill="#FFFFFF" d="M36.353,78.046c8.104-0.408,14.619-0.2,29.236-6.711c0,4.834-2.834,14.215-21.424,14.215
	C39.101,85.55,36.353,80.57,36.353,78.046z"/>
<path d="M34.572,85.625"/>
<path fill="#FFFFFF" d="M60.651,10.584c-0.068-0.16-0.109-0.33-0.136-0.5c-15.327,9.313-16.803,22.915-16.803,22.915
	s2.5-0.413,5.427-0.528c0-10.407,6.161-16.991,11.815-21.379C60.834,10.936,60.725,10.768,60.651,10.584z"/>
<path fill="#FFFFFF" d="M69.564,10.561c-2.917,1.12-5.837,0.589-6.522-1.192c-0.683-1.777,1.133-4.125,4.053-5.248
	c2.92-1.12,5.837-0.584,6.518,1.193C74.298,7.092,72.481,9.441,69.564,10.561z"/>
<path fill="#FFFFFF" d="M52.52,66.984c0.192,1.148-1.443,2.447-3.665,2.82c-2.224,0.372-4.194-0.318-4.385-1.472
	c-0.196-1.15,1.802-0.304,4.025-0.676C50.718,67.283,52.326,65.834,52.52,66.984z"/>
<path fill="#FFFFFF" d="M23.481,59.319c-0.233-1.234,3.632-3.078,8.652-4.033c5.021-0.956,9.296-0.664,9.53,0.567
	c0.233,1.232-4.07,0.777-9.089,1.733C27.552,58.543,23.717,60.551,23.481,59.319z"/>
<circle fill="none" stroke="#FFFFFF" stroke-width="3.2101" stroke-miterlimit="10" cx="32.555" cy="57.27" r="7.854"/>
<path fill="#FFFFFF" d="M72.897,54.187c0.048-1.255-4.052-2.494-9.158-2.688c-5.108-0.191-9.288,0.736-9.335,1.991
	c-0.049,1.254,4.139,0.155,9.246,0.348S72.85,55.438,72.897,54.187z"/>
<path fill="none" stroke="#FFFFFF" stroke-width="3.2101" stroke-miterlimit="10" d="M55.854,54.699
	c0.65,4.292,4.655,7.237,8.945,6.588c4.29-0.65,7.242-4.656,6.589-8.946c-0.65-4.288-4.655-7.237-8.945-6.587
	C58.15,46.405,55.203,50.411,55.854,54.699z"/>
</svg>
