<?xml version="1.0" encoding="utf-8"?>
<!-- Generator: Adobe Illustrator 16.0.0, SVG Export Plug-In . SVG Version: 6.00 Build 0)  -->
<!DOCTYPE svg PUBLIC "-//W3C//DTD SVG 1.1//EN" "http://www.w3.org/Graphics/SVG/1.1/DTD/svg11.dtd">
<svg version="1.1" id="Layer_1" xmlns="http://www.w3.org/2000/svg" xmlns:xlink="http://www.w3.org/1999/xlink" x="0px" y="0px"
	 width="120px" height="40px" viewBox="0 0 120 40" enable-background="new 0 0 120 40" xml:space="preserve">
<circle fill="#FF4519" cx="59.979" cy="20.084" r="18.747"/>
<path fill="#0000FF" d="M17.163,31.252h4.499V19.989h3.136l0.337-3.771h-3.473c0,0,0-1.408,0-2.147c0-0.89,0.178-1.241,1.037-1.241
	c0.693,0,2.436,0,2.436,0V8.917c0,0-2.566,0-3.113,0c-3.349,0-4.857,1.474-4.857,4.294c0,2.458,0,3.007,0,3.007h-2.339v3.819h2.339
	L17.163,31.252L17.163,31.252z"/>
<circle fill="none" stroke="#0000FF" stroke-miterlimit="10" cx="19.978" cy="20.084" r="18.747"/>
<path fill="#0000FF" d="M57.163,31.252h4.499V19.989h3.136l0.337-3.771h-3.473c0,0,0-1.408,0-2.147c0-0.89,0.178-1.241,1.037-1.241
	c0.693,0,2.436,0,2.436,0V8.917c0,0-2.566,0-3.113,0c-3.349,0-4.857,1.474-4.857,4.294c0,2.458,0,3.007,0,3.007h-2.339v3.819h2.339
	L57.163,31.252L57.163,31.252z"/>
<circle fill="none" stroke="#FF4519" stroke-miterlimit="10" cx="99.854" cy="20.084" r="18.747"/>
<path fill="#FF4519" d="M97.038,31.252h4.499V19.989h3.136l0.337-3.771h-3.473c0,0,0-1.408,0-2.147c0-0.89,0.178-1.241,1.037-1.241
	c0.693,0,2.436,0,2.436,0V8.917c0,0-2.566,0-3.113,0c-3.349,0-4.857,1.474-4.857,4.294c0,2.458,0,3.007,0,3.007H94.7v3.819h2.339
	L97.038,31.252L97.038,31.252z"/>
</svg>
