<?xml version="1.0" encoding="utf-8"?>
<!-- Generator: Adobe Illustrator 16.0.0, SVG Export Plug-In . SVG Version: 6.00 Build 0)  -->
<!DOCTYPE svg PUBLIC "-//W3C//DTD SVG 1.1//EN" "http://www.w3.org/Graphics/SVG/1.1/DTD/svg11.dtd">
<svg version="1.1" id="Layer_1" xmlns="http://www.w3.org/2000/svg" xmlns:xlink="http://www.w3.org/1999/xlink" x="0px" y="0px"
	 width="40px" height="40px" viewBox="0 0 40 40" enable-background="new 0 0 40 40" xml:space="preserve">
<path d="M19.997,0.007C8.952,0.007,0,8.959,0,20.003S8.952,40,19.997,40c11.042,0,19.998-8.952,19.998-19.997
	S31.039,0.007,19.997,0.007z M19.997,37.42c-9.619,0-17.417-7.797-17.417-17.417c0-9.619,7.797-17.417,17.417-17.417
	c9.618,0,17.415,7.797,17.415,17.417C37.411,29.623,29.614,37.42,19.997,37.42z"/>
<path d="M17.163,31.252h4.499V19.989h3.136l0.337-3.771h-3.473c0,0,0-1.408,0-2.147c0-0.89,0.178-1.241,1.037-1.241
	c0.693,0,2.436,0,2.436,0V8.917c0,0-2.567,0-3.114,0c-3.348,0-4.857,1.474-4.857,4.294c0,2.458,0,3.007,0,3.007h-2.339v3.819h2.339
	V31.252z"/>
<circle fill="none" stroke="#000000" stroke-width="0.4838" stroke-miterlimit="10" cx="19.978" cy="19.761" r="18.747"/>
</svg>
