<?xml version="1.0" encoding="utf-8"?>
<!-- Generator: Adobe Illustrator 16.0.0, SVG Export Plug-In . SVG Version: 6.00 Build 0)  -->
<!DOCTYPE svg PUBLIC "-//W3C//DTD SVG 1.1//EN" "http://www.w3.org/Graphics/SVG/1.1/DTD/svg11.dtd">
<svg version="1.1" id="Layer_1" xmlns="http://www.w3.org/2000/svg" xmlns:xlink="http://www.w3.org/1999/xlink" x="0px" y="0px"
	 width="40px" height="40px" viewBox="0 0 40 40" enable-background="new 0 0 40 40" xml:space="preserve">
<circle fill="none" stroke="#000000" stroke-width="0.4838" stroke-miterlimit="10" cx="19.978" cy="20.084" r="18.747"/>
<path d="M20.01,0.015c-11.041,0-19.99,8.949-19.99,19.99c0,11.039,8.949,19.989,19.99,19.989c11.039,0,19.99-8.95,19.99-19.989
	C40,8.963,31.049,0.015,20.01,0.015z M20.01,37.415c-9.615,0-17.411-7.794-17.411-17.41c0-9.616,7.795-17.411,17.411-17.411
	s17.41,7.795,17.41,17.411C37.42,29.621,29.625,37.415,20.01,37.415z"/>
<path d="M20.2,15.081c1.397,0,2.66,0.572,3.57,1.495h6.232v-2.544h0.001c0-2.138-1.733-3.871-3.873-3.871H15.548v4.881h-0.793
	v-4.881h-0.459c-0.03,0-0.06,0-0.089,0.001v4.879h-0.793v-4.779c-0.192,0.045-0.38,0.104-0.559,0.177v4.603h-0.795v-4.169
	c-0.988,0.701-1.635,1.854-1.635,3.159v2.544h6.208C17.54,15.653,18.803,15.081,20.2,15.081z M24.898,12.399
	c0-0.343,0.277-0.621,0.62-0.621h2.094c0.343,0,0.621,0.278,0.621,0.621v2.141c0,0.342-0.278,0.621-0.621,0.621h-2.094
	c-0.343,0-0.62-0.278-0.62-0.621V12.399z"/>
<path d="M22.742,17.189c-0.283-0.248-0.603-0.456-0.95-0.613c-0.485-0.221-1.024-0.344-1.592-0.344
	c-0.567,0-1.106,0.124-1.592,0.344c-0.346,0.157-0.666,0.366-0.949,0.613c-0.808,0.709-1.318,1.746-1.318,2.902
	c0,2.127,1.731,3.86,3.859,3.86c2.129,0,3.861-1.733,3.861-3.86C24.062,18.935,23.549,17.898,22.742,17.189z M20.213,22.943
	c-1.575,0-2.852-1.277-2.852-2.853c0-1.576,1.277-2.853,2.852-2.853c1.576,0,2.853,1.277,2.853,2.853
	C23.065,21.666,21.789,22.943,20.213,22.943z"/>
<path d="M14.295,29.842h11.835c2.14,0,3.873-1.733,3.873-3.873v-8.78h-5.721c0.583,0.819,0.928,1.82,0.928,2.902
	c0,2.767-2.244,5.011-5.011,5.011s-5.01-2.244-5.01-5.011c0-1.082,0.344-2.083,0.927-2.902h-5.694v8.78
	C10.423,28.108,12.157,29.842,14.295,29.842z"/>
</svg>
