<?xml version="1.0" encoding="utf-8"?>
<!-- Generator: Adobe Illustrator 16.0.0, SVG Export Plug-In . SVG Version: 6.00 Build 0)  -->
<!DOCTYPE svg PUBLIC "-//W3C//DTD SVG 1.1//EN" "http://www.w3.org/Graphics/SVG/1.1/DTD/svg11.dtd">
<svg version="1.1" id="Layer_1" xmlns="http://www.w3.org/2000/svg" xmlns:xlink="http://www.w3.org/1999/xlink" x="0px" y="0px"
	 width="120px" height="40px" viewBox="0 0 120 40" enable-background="new 0 0 120 40" xml:space="preserve">
<circle fill="none" stroke="#0000FF" stroke-miterlimit="10" cx="19.978" cy="20.084" r="18.747"/>
<path fill="#0000FF" d="M20.2,15.081c1.397,0,2.659,0.572,3.569,1.495h6.232v-2.544h0.001c0-2.138-1.733-3.871-3.873-3.871H15.548
	v4.881h-0.793v-4.881h-0.459c-0.03,0-0.06,0-0.089,0.001v4.879h-0.793v-4.779c-0.192,0.045-0.38,0.104-0.559,0.177v4.603H12.06
	v-4.169c-0.988,0.701-1.635,1.854-1.635,3.159v2.544h6.208C17.54,15.653,18.803,15.081,20.2,15.081z M24.898,12.399
	c0-0.343,0.276-0.621,0.619-0.621h2.094c0.344,0,0.621,0.278,0.621,0.621v2.141c0,0.342-0.277,0.621-0.621,0.621h-2.094
	c-0.343,0-0.619-0.278-0.619-0.621V12.399z"/>
<path fill="#0000FF" d="M22.742,17.189c-0.283-0.248-0.604-0.456-0.95-0.613c-0.485-0.221-1.024-0.344-1.592-0.344
	s-1.106,0.124-1.592,0.344c-0.346,0.157-0.666,0.366-0.949,0.613c-0.808,0.709-1.318,1.746-1.318,2.902
	c0,2.127,1.731,3.86,3.859,3.86c2.129,0,3.86-1.733,3.86-3.86C24.063,18.935,23.549,17.898,22.742,17.189z M20.213,22.943
	c-1.575,0-2.852-1.277-2.852-2.854c0-1.576,1.277-2.853,2.852-2.853c1.576,0,2.854,1.277,2.854,2.853
	C23.064,21.666,21.789,22.943,20.213,22.943z"/>
<path fill="#0000FF" d="M14.295,29.842H26.13c2.14,0,3.873-1.732,3.873-3.873v-8.78h-5.721c0.583,0.819,0.928,1.82,0.928,2.902
	c0,2.767-2.244,5.011-5.011,5.011c-2.767,0-5.01-2.244-5.01-5.011c0-1.082,0.344-2.083,0.927-2.902h-5.694v8.78
	C10.423,28.107,12.157,29.842,14.295,29.842z"/>
<circle fill="#FF4519" cx="60" cy="20.084" r="18.747"/>
<path fill="#0000FF" d="M60.223,15.081c1.397,0,2.659,0.572,3.569,1.495h6.232v-2.544h0.001c0-2.138-1.733-3.871-3.873-3.871H55.57
	v4.881h-0.793v-4.881h-0.459c-0.029,0-0.061,0-0.089,0.001v4.879h-0.793v-4.779c-0.192,0.045-0.38,0.104-0.56,0.177v4.603h-0.795
	v-4.169c-0.988,0.701-1.635,1.854-1.635,3.159v2.544h6.208C57.563,15.653,58.826,15.081,60.223,15.081z M64.921,12.399
	c0-0.343,0.276-0.621,0.619-0.621h2.094c0.344,0,0.621,0.278,0.621,0.621v2.141c0,0.342-0.277,0.621-0.621,0.621H65.54
	c-0.343,0-0.619-0.278-0.619-0.621V12.399z"/>
<path fill="#0000FF" d="M62.765,17.189c-0.283-0.248-0.604-0.456-0.95-0.613c-0.485-0.221-1.024-0.344-1.592-0.344
	s-1.106,0.124-1.592,0.344c-0.346,0.157-0.666,0.366-0.949,0.613c-0.809,0.709-1.318,1.746-1.318,2.902
	c0,2.127,1.73,3.86,3.859,3.86s3.86-1.733,3.86-3.86C64.085,18.935,63.571,17.898,62.765,17.189z M60.235,22.943
	c-1.575,0-2.853-1.277-2.853-2.854c0-1.576,1.277-2.853,2.853-2.853c1.576,0,2.854,1.277,2.854,2.853
	C63.087,21.666,61.812,22.943,60.235,22.943z"/>
<path fill="#0000FF" d="M54.317,29.842h11.835c2.14,0,3.873-1.732,3.873-3.873v-8.78h-5.721c0.583,0.819,0.928,1.82,0.928,2.902
	c0,2.767-2.244,5.011-5.011,5.011s-5.011-2.244-5.011-5.011c0-1.082,0.345-2.083,0.928-2.902h-5.694v8.78
	C50.445,28.107,52.18,29.842,54.317,29.842z"/>
<circle fill="none" stroke="#FF4519" stroke-miterlimit="10" cx="100.125" cy="20.084" r="18.747"/>
<path fill="#FF4519" d="M100.348,15.081c1.397,0,2.659,0.572,3.569,1.495h6.232v-2.544h0.001c0-2.138-1.733-3.871-3.873-3.871
	H95.695v4.881h-0.793v-4.881h-0.459c-0.029,0-0.061,0-0.089,0.001v4.879h-0.793v-4.779c-0.192,0.045-0.38,0.104-0.56,0.177v4.603
	h-0.795v-4.169c-0.988,0.701-1.635,1.854-1.635,3.159v2.544h6.208C97.688,15.653,98.951,15.081,100.348,15.081z M105.046,12.399
	c0-0.343,0.276-0.621,0.619-0.621h2.094c0.344,0,0.621,0.278,0.621,0.621v2.141c0,0.342-0.277,0.621-0.621,0.621h-2.094
	c-0.343,0-0.619-0.278-0.619-0.621V12.399z"/>
<path fill="#FF4519" d="M102.89,17.189c-0.283-0.248-0.604-0.456-0.95-0.613c-0.485-0.221-1.024-0.344-1.592-0.344
	s-1.106,0.124-1.592,0.344c-0.346,0.157-0.666,0.366-0.949,0.613c-0.809,0.709-1.318,1.746-1.318,2.902
	c0,2.127,1.73,3.86,3.859,3.86s3.86-1.733,3.86-3.86C104.21,18.935,103.696,17.898,102.89,17.189z M100.36,22.943
	c-1.575,0-2.853-1.277-2.853-2.854c0-1.576,1.277-2.853,2.853-2.853c1.576,0,2.854,1.277,2.854,2.853
	C103.212,21.666,101.937,22.943,100.36,22.943z"/>
<path fill="#FF4519" d="M94.442,29.842h11.835c2.14,0,3.873-1.732,3.873-3.873v-8.78h-5.721c0.583,0.819,0.928,1.82,0.928,2.902
	c0,2.767-2.244,5.011-5.011,5.011s-5.011-2.244-5.011-5.011c0-1.082,0.345-2.083,0.928-2.902h-5.694v8.78
	C90.57,28.107,92.305,29.842,94.442,29.842z"/>
</svg>
