<?xml version="1.0" encoding="utf-8"?>
<!-- Generator: Adobe Illustrator 16.0.0, SVG Export Plug-In . SVG Version: 6.00 Build 0)  -->
<!DOCTYPE svg PUBLIC "-//W3C//DTD SVG 1.1//EN" "http://www.w3.org/Graphics/SVG/1.1/DTD/svg11.dtd">
<svg version="1.1" id="Layer_1" xmlns="http://www.w3.org/2000/svg" xmlns:xlink="http://www.w3.org/1999/xlink" x="0px" y="0px"
	 width="120px" height="40px" viewBox="0 0 120 40" enable-background="new 0 0 120 40" xml:space="preserve">
<circle fill="none" stroke="#0000FF" stroke-miterlimit="10" cx="19.978" cy="20.084" r="18.747"/>
<rect x="11.504" y="16.068" fill="#0000FF" width="3.826" height="12.36"/>
<ellipse fill="#0000FF" cx="13.399" cy="12.169" rx="2.262" ry="2.281"/>
<path fill="#0000FF" d="M21.445,21.939c0-1.737,0.801-2.772,2.332-2.772c1.406,0,2.082,0.994,2.082,2.772c0,1.779,0,6.487,0,6.487
	h3.81c0,0,0-4.516,0-7.825c0-3.311-1.877-4.912-4.498-4.912s-3.726,2.042-3.726,2.042v-1.665h-3.669v12.36h3.669
	C21.445,28.428,21.445,23.846,21.445,21.939z"/>
<circle fill="#FF4519" cx="60" cy="20.084" r="18.747"/>
<rect x="51.526" y="16.068" fill="#0000FF" width="3.826" height="12.36"/>
<ellipse fill="#0000FF" cx="53.422" cy="12.169" rx="2.262" ry="2.281"/>
<path fill="#0000FF" d="M61.468,21.939c0-1.737,0.801-2.772,2.332-2.772c1.406,0,2.082,0.994,2.082,2.772c0,1.779,0,6.487,0,6.487
	h3.81c0,0,0-4.516,0-7.825c0-3.311-1.877-4.912-4.498-4.912s-3.726,2.042-3.726,2.042v-1.665h-3.669v12.36h3.669
	C61.468,28.428,61.468,23.846,61.468,21.939z"/>
<circle fill="none" stroke="#FF4519" stroke-miterlimit="10" cx="99.951" cy="20.084" r="18.747"/>
<rect x="91.478" y="16.068" fill="#FF4519" width="3.826" height="12.36"/>
<ellipse fill="#FF4519" cx="93.373" cy="12.169" rx="2.262" ry="2.281"/>
<path fill="#FF4519" d="M101.419,21.939c0-1.737,0.801-2.772,2.332-2.772c1.406,0,2.082,0.994,2.082,2.772c0,1.779,0,6.487,0,6.487
	h3.81c0,0,0-4.516,0-7.825c0-3.311-1.877-4.912-4.498-4.912s-3.726,2.042-3.726,2.042v-1.665H97.75v12.36h3.669
	C101.419,28.428,101.419,23.846,101.419,21.939z"/>
</svg>
