<?xml version="1.0" encoding="utf-8"?>
<!-- Generator: Adobe Illustrator 16.0.0, SVG Export Plug-In . SVG Version: 6.00 Build 0)  -->
<!DOCTYPE svg PUBLIC "-//W3C//DTD SVG 1.1//EN" "http://www.w3.org/Graphics/SVG/1.1/DTD/svg11.dtd">
<svg version="1.1" id="Layer_1" xmlns="http://www.w3.org/2000/svg" xmlns:xlink="http://www.w3.org/1999/xlink" x="0px" y="0px"
	 width="40px" height="40px" viewBox="0 0 40 40" enable-background="new 0 0 40 40" xml:space="preserve">
<circle fill="none" stroke="#000000" stroke-width="0.4838" stroke-miterlimit="10" cx="19.978" cy="20.084" r="18.747"/>
<path d="M20.007,0C8.957,0,0,8.958,0,20.008c0,11.05,8.957,20.007,20.007,20.007c11.049,0,20.007-8.957,20.007-20.007
	C40.015,8.958,31.057,0,20.007,0z M20.007,37.434c-9.624,0-17.425-7.801-17.425-17.426c0-9.625,7.801-17.426,17.425-17.426
	c9.624,0,17.426,7.801,17.426,17.426C37.434,29.633,29.631,37.434,20.007,37.434z"/>
<rect x="11.504" y="16.068" width="3.826" height="12.36"/>
<ellipse cx="13.399" cy="12.169" rx="2.262" ry="2.281"/>
<path d="M21.446,21.94c0-1.738,0.8-2.773,2.331-2.773c1.407,0,2.083,0.994,2.083,2.773s0,6.487,0,6.487h3.809c0,0,0-4.516,0-7.826
	s-1.877-4.911-4.498-4.911s-3.725,2.042-3.725,2.042v-1.665h-3.67v12.36h3.67C21.446,28.428,21.446,23.845,21.446,21.94z"/>
</svg>
