<?xml version="1.0" encoding="utf-8"?>
<!-- Generator: Adobe Illustrator 16.0.0, SVG Export Plug-In . SVG Version: 6.00 Build 0)  -->
<!DOCTYPE svg PUBLIC "-//W3C//DTD SVG 1.1//EN" "http://www.w3.org/Graphics/SVG/1.1/DTD/svg11.dtd">
<svg version="1.1" id="Layer_1" xmlns="http://www.w3.org/2000/svg" xmlns:xlink="http://www.w3.org/1999/xlink" x="0px" y="0px"
	 width="40px" height="40px" viewBox="0 0 40 40" enable-background="new 0 0 40 40" xml:space="preserve">
<circle fill="none" stroke="#000000" stroke-width="0.4838" stroke-miterlimit="10" cx="19.978" cy="20.084" r="18.747"/>
<path d="M20,0.011c-11.046,0-20,8.954-20,20c0,11.045,8.954,20,20,20c11.045,0,20-8.955,20-20C40,8.965,31.046,0.011,20,0.011z
	 M20,37.43c-9.621,0-17.419-7.797-17.419-17.418c0-9.621,7.798-17.419,17.419-17.419c9.62,0,17.417,7.798,17.417,17.419
	C37.418,29.633,29.62,37.43,20,37.43z"/>
<path d="M11.077,27.209c1.787,1.146,3.912,1.815,6.193,1.815c7.5,0,11.738-6.335,11.483-12.019c0.79-0.569,1.475-1.28,2.015-2.092
	c-0.724,0.321-1.502,0.539-2.318,0.636c0.834-0.499,1.474-1.291,1.776-2.234c-0.782,0.462-1.646,0.799-2.565,0.98
	c-0.737-0.786-1.787-1.276-2.95-1.276c-2.607,0-4.524,2.434-3.935,4.96c-3.358-0.168-6.335-1.776-8.327-4.221
	c-1.058,1.816-0.549,4.192,1.25,5.395c-0.663-0.021-1.286-0.204-1.83-0.506c-0.044,1.872,1.298,3.622,3.24,4.012
	c-0.569,0.156-1.192,0.189-1.824,0.07c0.514,1.605,2.006,2.772,3.774,2.806C15.36,26.867,13.221,27.463,11.077,27.209z"/>
</svg>
