<?xml version="1.0" encoding="utf-8"?>
<!-- Generator: Adobe Illustrator 16.0.0, SVG Export Plug-In . SVG Version: 6.00 Build 0)  -->
<!DOCTYPE svg PUBLIC "-//W3C//DTD SVG 1.1//EN" "http://www.w3.org/Graphics/SVG/1.1/DTD/svg11.dtd">
<svg version="1.1" id="Layer_1" xmlns="http://www.w3.org/2000/svg" xmlns:xlink="http://www.w3.org/1999/xlink" x="0px" y="0px"
	 width="120px" height="40px" viewBox="0 0 120 40" enable-background="new 0 0 120 40" xml:space="preserve">
<circle fill="none" stroke="#0000FF" stroke-miterlimit="10" cx="19.978" cy="20.084" r="18.747"/>
<path fill="#0000FF" d="M11.077,27.209c1.787,1.146,3.912,1.814,6.193,1.814c7.5,0,11.738-6.334,11.483-12.019
	c0.79-0.569,1.476-1.28,2.015-2.092c-0.724,0.321-1.502,0.539-2.317,0.636c0.834-0.499,1.474-1.291,1.776-2.234
	c-0.783,0.462-1.646,0.799-2.565,0.98c-0.737-0.786-1.787-1.276-2.95-1.276c-2.607,0-4.524,2.434-3.936,4.96
	c-3.357-0.168-6.334-1.776-8.326-4.221c-1.058,1.816-0.549,4.192,1.25,5.395c-0.663-0.021-1.286-0.204-1.83-0.506
	c-0.044,1.873,1.298,3.623,3.24,4.012c-0.569,0.155-1.192,0.188-1.824,0.069c0.514,1.605,2.006,2.772,3.774,2.807
	C15.36,26.867,13.221,27.463,11.077,27.209z"/>
<circle fill="#FF4519" cx="60" cy="20.084" r="18.747"/>
<path fill="#0000FF" d="M51.1,27.209c1.787,1.146,3.912,1.814,6.193,1.814c7.499,0,11.737-6.334,11.482-12.019
	c0.79-0.569,1.476-1.28,2.015-2.092c-0.724,0.321-1.502,0.539-2.317,0.636c0.834-0.499,1.474-1.291,1.776-2.234
	c-0.783,0.462-1.646,0.799-2.565,0.98c-0.737-0.786-1.787-1.276-2.95-1.276c-2.607,0-4.524,2.434-3.936,4.96
	c-3.357-0.168-6.335-1.776-8.326-4.221c-1.058,1.816-0.55,4.192,1.25,5.395c-0.663-0.021-1.286-0.204-1.83-0.506
	c-0.044,1.873,1.298,3.623,3.239,4.012c-0.568,0.155-1.191,0.188-1.823,0.069c0.514,1.605,2.006,2.772,3.774,2.807
	C55.383,26.867,53.244,27.463,51.1,27.209z"/>
<circle fill="none" stroke="#FF4519" stroke-miterlimit="10" cx="99.134" cy="20.084" r="18.747"/>
<path fill="#FF4519" d="M90.233,27.209c1.787,1.146,3.912,1.814,6.193,1.814c7.499,0,11.737-6.334,11.482-12.019
	c0.79-0.569,1.476-1.28,2.015-2.092c-0.724,0.321-1.502,0.539-2.317,0.636c0.834-0.499,1.474-1.291,1.776-2.234
	c-0.783,0.462-1.646,0.799-2.565,0.98c-0.737-0.786-1.787-1.276-2.95-1.276c-2.607,0-4.524,2.434-3.936,4.96
	c-3.357-0.168-6.335-1.776-8.326-4.221c-1.058,1.816-0.55,4.192,1.25,5.395c-0.663-0.021-1.286-0.204-1.83-0.506
	c-0.044,1.873,1.298,3.623,3.239,4.012c-0.568,0.155-1.191,0.188-1.823,0.069c0.514,1.605,2.006,2.772,3.774,2.807
	C94.517,26.867,92.378,27.463,90.233,27.209z"/>
</svg>
